<?xml version="1.0" encoding="UTF-8"?>
<svg width="31px" height="24px" viewBox="0 0 31 24" version="1.1" xmlns="http://www.w3.org/2000/svg" xmlns:xlink="http://www.w3.org/1999/xlink">
    <!-- Generator: Sketch 61 (89581) - https://sketch.com -->
    <title>comments</title>
    <desc>Created with Sketch.</desc>
    <g id="Symbols" stroke="none" stroke-width="1" fill="none" fill-rule="evenodd">
        <g id="Header" transform="translate(-270.000000, -14.000000)" fill="#000000" fill-rule="nonzero">
            <g id="comments" transform="translate(270.000000, 14.000000)">
                <path d="M28.5535714,18.975 C30.0267857,17.5232143 30.9107143,15.7017857 30.9107143,13.7142857 C30.9107143,9.42857143 26.8125,5.8875 21.4714286,5.25535714 C19.7839286,2.16964286 15.8196429,0 11.1964286,0 C5.04107143,0 0.0535714286,3.83571429 0.0535714286,8.57142857 C0.0535714286,10.5535714 0.9375,12.375 2.41071429,13.8321429 C1.59107143,15.4767857 0.4125,16.7517857 0.391071429,16.7732143 C0.0535714286,17.1321429 -0.0428571429,17.6571429 0.155357143,18.1125 C0.348214286,18.5678571 0.798214286,18.8625 1.29107143,18.8625 C4.15714286,18.8625 6.47142857,17.7803571 7.99821429,16.7839286 C8.49107143,16.8964286 9,16.9821429 9.51964286,17.0464286 C11.2017857,20.1214286 15.15,22.2857143 19.7678571,22.2857143 C20.8821429,22.2857143 21.9535714,22.1571429 22.9714286,21.9214286 C24.4982143,22.9125 26.8071429,24 29.6785714,24 C30.1714286,24 30.6160714,23.7053571 30.8142857,23.25 C31.0071429,22.7946429 30.9160714,22.2696429 30.5785714,21.9107143 C30.5571429,21.8946429 29.3732143,20.6196429 28.5535714,18.975 L28.5535714,18.975 Z M7.51071429,14.0303571 L6.59464286,14.625 C5.83928571,15.1125 5.06785714,15.4982143 4.28571429,15.7714286 C4.43035714,15.5196429 4.575,15.2517857 4.71428571,14.9785714 L5.54464286,13.3125 L4.21607143,12 C3.49285714,11.2821429 2.625,10.1089286 2.625,8.57142857 C2.625,5.31964286 6.55178571,2.57142857 11.1964286,2.57142857 C15.8410714,2.57142857 19.7678571,5.31964286 19.7678571,8.57142857 C19.7678571,11.8232143 15.8410714,14.5714286 11.1964286,14.5714286 C10.3125,14.5714286 9.42857143,14.4696429 8.57142857,14.2714286 L7.51071429,14.0303571 Z M26.7482143,17.1428571 L25.425,18.45 L26.2553571,20.1160714 C26.3946429,20.3892857 26.5392857,20.6571429 26.6839286,20.9089286 C25.9017857,20.6357143 25.1303571,20.25 24.375,19.7625 L23.4589286,19.1678571 L22.3928571,19.4142857 C21.5357143,19.6125 20.6517857,19.7142857 19.7678571,19.7142857 C16.875,19.7142857 14.2928571,18.6375 12.7339286,17.0517857 C18.1607143,16.4732143 22.3392857,12.9053571 22.3392857,8.57142857 C22.3392857,8.38928571 22.3178571,8.2125 22.3017857,8.03571429 C25.7517857,8.8125 28.3392857,11.0785714 28.3392857,13.7142857 C28.3392857,15.2517857 27.4714286,16.425 26.7482143,17.1428571 Z" id="Shape"></path>
            </g>
        </g>
    </g>
</svg>