<?xml version="1.0" encoding="UTF-8"?>
<svg width="214px" height="306px" viewBox="0 0 214 306" version="1.1" xmlns="http://www.w3.org/2000/svg" xmlns:xlink="http://www.w3.org/1999/xlink">
    <!-- Generator: Sketch 61 (89581) - https://sketch.com -->
    <title>tikigiki_people-man-008</title>
    <desc>Created with Sketch.</desc>
    <g id="Page-1" stroke="none" stroke-width="1" fill="none" fill-rule="evenodd">
        <g id="Desktop-CV" transform="translate(-533.000000, -160.000000)" fill-rule="nonzero">
            <g id="tikigiki_people-man-008" transform="translate(533.000000, 160.000000)">
                <path d="M66.3851597,53.463191 C73.1262732,51.2737189 80.2630258,50.646212 87.3142119,50.1232895 C96.3783282,49.9107194 105.443292,50.045914 114.50995,50.0085017 C120.608044,50.0739733 126.732401,49.7959316 132.796607,50.5237716 C134.63078,50.834124 136.478507,51.0926092 138.351651,51.0271376 C142.606253,50.9659174 146.611781,52.4598601 150.68932,53.4249284 C152.595504,53.9521022 154.604198,54.1646723 156.442607,54.930775 C158.655475,55.8966935 161.060655,56.3549947 163.259968,57.3532239 C168.71589,59.809684 173.606734,63.3689577 177.666482,67.6416168 C181.368715,70.8539762 184.475371,74.7210515 186.803457,78.9631004 C188.076788,81.3566398 189.20779,83.922786 189.276413,86.6521861 C189.25608,89.1035446 189.80845,91.5591544 189.407728,94.0096625 C188.799444,97.5128178 188.748612,101.077193 188.901107,104.617761 C188.973118,106.258802 189.342494,107.894742 189.104433,109.540034 C188.765556,112.122336 188.271642,114.699536 188.428373,117.318399 C188.576632,120.318189 188.354667,123.322229 188.516481,126.321168 C189.034963,129.263139 188.004777,132.23827 188.662198,135.172587 C189.384854,138.990346 189.597499,142.934797 188.899412,146.774664 C188.205561,150.960594 184.089898,153.726556 183.614623,157.994113 C185.201415,157.757736 187.000853,157.798549 188.291975,156.737399 C190.219339,155.091256 191.317301,152.796349 192.589784,150.685103 C195.1051,146.363978 197.795784,141.830283 202.225756,139.059219 C203.339814,138.249752 204.774112,138.785429 206,139.005651 C202.828957,146.204125 196.390291,151.286251 190.930134,156.83008 C189.125613,158.790826 187.104211,160.632534 185.818172,162.969104 C184.707502,164.888187 184.627866,167.151633 184.567715,169.29434 C184.614311,172.298381 184.325418,175.293068 184.25256,178.297109 C184.234768,183.600308 182.281989,188.638219 181.460212,193.838534 C181.039157,196.64616 180.566423,199.448684 179.87342,202.211246 C178.817817,206.462648 177.153931,210.543143 175.677273,214.667854 C174.932591,216.815662 174.757222,219.08336 174.289572,221.288987 C172.676516,229.779887 170.322167,238.12794 167.416296,246.291482 C165.509265,252.024073 162.547479,257.404647 158.871509,262.266551 C151.640718,271.741225 142.129284,279.27471 132.705958,286.634737 C127.973538,290.122587 122.973406,293.353653 117.538664,295.743791 C110.469687,298.915337 102.46795,297.877144 94.9313228,297.683281 C90.9181703,297.627162 86.8287704,297.965574 82.8918652,297.008158 C80.4189093,296.418914 77.8536093,295.637506 75.9957154,293.881677 C73.5041212,291.703258 71.8122771,288.868424 69.8722054,286.262314 C65.1948537,279.767872 59.5169672,273.993618 55.0734407,267.340174 C53.0020542,264.369294 51.9244249,260.788763 49.2947383,258.178403 C45.4645794,254.172732 40.8346705,250.464659 39.0903004,245.087485 C35.6811964,235.749706 34.6628705,225.781018 34.6289828,215.939873 C34.5442635,202.177234 35.6888211,188.191822 32.3830746,174.667262 C31.5011468,170.951537 30.0075458,167.366754 29.5915741,163.557498 C29.318778,161.663073 29.2340588,159.749092 29.1908519,157.841063 C29.0976607,154.039459 27.0965912,150.577968 26.8924177,146.796771 C26.8288782,142.426329 26.5188057,138.067792 26.5306664,133.698201 C26.2578703,129.499516 25.483536,125.288928 23.8306627,121.373387 C22.2777582,117.829418 22.3370617,113.909625 21.5805185,110.189648 C20.7426448,106.338728 21.068814,102.394278 21.0349263,98.4948917 C20.980706,95.9125901 22.4954868,93.6704006 23.1749355,91.2479518 C23.8857303,88.7277206 24.2728974,86.0893005 25.5504642,83.75273 C26.9974696,81.3217783 27.6150732,78.5396608 29.0620786,76.1087091 C30.7801857,72.7696579 33.4318993,69.9297214 36.5266948,67.7079387 C39.5909914,65.0023464 42.8891131,62.4906181 46.604901,60.6489107 C49.4048733,59.3590353 52.0557398,57.7435026 55.0522609,56.8787674 C58.7324666,55.3576157 62.6990236,54.7921793 66.4063395,53.4385329 M147.228538,105.030997 C141.746353,105.612589 136.219266,105.795399 130.759956,106.593813 C127.904069,107.108232 125.082069,107.816516 122.199919,108.210196 C119.548205,108.622582 116.620307,108.926132 114.592127,110.812904 C119.339796,112.113833 124.124741,110.244066 128.891048,110.088465 C136.164199,109.334266 143.429725,108.523949 150.719819,107.907496 C154.196699,107.596293 157.779477,107.518918 161.153846,108.509494 C164.988241,109.471161 168.053385,112.155497 170.450094,115.081312 C172.651101,117.954409 173.32716,121.948176 176.624435,123.982897 C176.778624,119.325061 173.63808,115.406119 170.58988,112.095977 C167.908515,109.263693 164.912841,106.330226 160.934423,105.347301 C156.461245,104.114395 151.767797,104.590552 147.218371,105.024195 M55.1962837,105.763939 C47.2885856,107.04106 39.3597077,110.057005 33.7639989,115.753033 C32.0746964,117.368566 30.7251182,119.313157 29.9550199,121.484773 C32.1289167,120.609835 33.9334375,119.098887 35.5973243,117.524167 C40.7516456,112.448843 47.9612567,109.875895 55.0641216,108.529901 C58.5291404,107.924501 62.0382131,107.34291 65.5803265,107.609047 C69.8340818,107.899843 73.9124682,109.516226 78.2153606,109.40484 C78.0747266,108.819847 77.9264679,108.239105 77.7756676,107.660914 C73.2991005,106.781725 68.8809898,105.444233 64.2892046,105.254621 C61.2477822,105.135582 58.2055127,105.382163 55.1962837,105.764789 M43.569409,117.005496 C41.6581419,117.942505 40.3136469,119.604803 38.7005917,120.909133 C36.2581347,122.934501 33.3895397,124.498167 31.2791823,126.878952 C29.6957789,128.678996 28.6876194,131.102295 29.2061014,133.475428 C29.823705,134.26959 30.7429092,134.764453 31.5816301,135.312884 C35.2406561,131.212831 39.088606,127.178251 43.7524026,124.117241 C48.094266,121.364034 53.6188106,121.997492 58.4689897,122.799307 C64.7983675,124.23288 71.0709833,125.99211 77.5172737,126.875551 C78.2882192,126.976734 79.3658485,126.638323 79.4412487,125.778689 C79.6835459,123.919976 79.495469,121.80958 78.0916705,120.388762 C77.0411514,119.537631 75.5890628,119.488315 74.3216623,119.14055 C67.2442132,117.44254 60.2260676,114.811773 52.8207549,115.097467 C49.680211,115.352551 46.407505,115.565121 43.569409,117.019101 M126.518908,122.647957 C123.28602,123.221046 122.808204,127.23522 123.731644,129.718039 C124.710999,129.87449 125.710686,129.955267 126.69343,129.763954 C131.001406,129.005504 135.282271,128.111009 139.517388,127.030302 C144.380275,125.692811 149.515111,124.709887 154.572852,125.458134 C157.543958,125.896878 160.025386,127.675665 162.238253,129.521624 C165.553319,132.160894 168.468509,135.225305 171.221886,138.396851 C172.180061,137.767643 173.389853,137.235368 173.814296,136.118099 C174.006609,134.080827 173.159416,132.059711 171.928445,130.433975 C169.256399,127.089822 165.094988,125.32719 162.178103,122.221116 C158.92234,118.906723 153.907806,118.301323 149.415989,118.19929 C141.503208,117.969714 134.13263,121.115752 126.516367,122.646256 M82.8478112,135.706563 C85.7968895,139.745395 87.7251004,144.377723 90.6911226,148.405501 C92.3770364,150.639188 92.4490477,153.527591 92.5439333,156.179615 C92.6591516,161.860338 92.1813348,167.932191 88.7654532,172.769436 C85.9773416,177.733373 82.60975,182.349545 79.381098,187.046494 C77.6189369,189.476596 75.2620464,191.687325 74.5419324,194.662456 C74.144599,197.215848 74.5546403,199.879777 75.5594111,202.269065 C76.6319572,204.369257 79.2514775,204.826708 81.2779628,205.705898 C85.232659,207.187086 87.3269198,211.537121 91.6450617,212.334684 C95.147357,212.773429 99.0071676,212.847403 102.097727,210.951278 C105.897387,208.618959 108.915088,205.006968 110.188419,200.823588 C107.379975,201.597343 105.433973,203.798719 103.127914,205.375139 C100.998918,206.847825 98.8936438,208.71419 96.1563637,208.935263 C93.7647382,209.213305 91.0232222,209.246466 89.1136495,207.613927 C87.5090662,206.557879 87.042263,204.369257 85.1513285,203.672878 C82.8274785,202.785185 80.163057,202.13302 78.5762648,200.129759 C77.2741294,198.108643 77.0403042,195.239796 78.6398043,193.303708 C80.6383322,190.718005 82.8528943,188.266647 84.5718486,185.484529 C86.2281106,182.943891 87.2193263,180.025729 89.2026047,177.680656 C91.3942926,174.770996 94.6924144,172.245663 95.0626377,168.436407 C95.5311353,163.666334 96.1944873,158.909865 96.6494299,154.139792 C96.9866127,151.234384 95.1100805,148.750715 93.5478569,146.451557 C90.7258575,142.629547 88.1681823,138.635779 85.7723209,134.556134 C84.7861884,134.913252 83.8195414,135.312884 82.8452696,135.704013 M49.9945196,138.169826 C49.9775757,139.041363 49.9818117,139.912901 50.0080747,140.78954 C54.1457645,140.526803 58.1097799,139.259035 62.2008742,138.702101 C64.6221513,138.374743 67.1976176,138.383246 69.470636,139.352566 C73.9260232,141.263996 76.5480851,145.85551 81.3016842,147.267826 C79.9648139,144.370921 77.4579702,142.197604 75.0968438,140.069352 C70.7016072,136.321316 64.712801,134.050217 58.8027837,134.827373 C55.6596982,135.380056 52.838546,136.868046 49.9945196,138.177478 M112.602918,145.727968 C111.309255,148.15892 109.407307,150.43342 109.196356,153.261453 C108.903227,156.690634 109.351392,160.147874 108.89645,163.569402 C108.743108,165.689151 108.377121,167.796146 108.31697,169.924398 C109.879193,168.99079 111.291464,167.670305 111.781141,165.910224 C112.981614,162.182595 111.746407,158.310418 111.692186,154.534323 C112.480076,147.971858 119.977732,143.910919 119.599884,137.033001 C116.261944,139.039663 114.432008,142.534315 112.593599,145.731369 M135.247536,140.536156 C132.034134,142.03435 129.033377,144.407483 127.774448,147.716774 C130.288916,146.88605 132.366233,145.204196 134.817162,144.238277 C138.19492,142.962006 141.748894,141.459561 145.468071,142.058158 C149.07796,142.752837 152.838649,143.376093 155.979192,145.335139 C158.197143,146.721946 160.227865,148.550899 162.916008,149.035559 C162.15777,146.821429 160.646378,144.94316 158.987574,143.285113 C157.314368,141.590504 155.420892,140.020036 153.147874,139.148499 C151.151888,138.375594 148.968672,138.353486 146.857467,138.30502 C142.892605,138.236998 138.851495,138.874708 135.250925,140.532755 M59.3602365,142.930546 C56.5983879,143.461971 53.8238313,144.334359 51.5592848,145.992406 C49.4777319,147.666608 48.4051858,150.305028 48.2645518,152.863522 C51.1670345,151.030317 53.2485873,148.140214 56.4238661,146.687935 C57.4693021,148.82469 58.3003983,151.16211 60.0922112,152.850767 C61.5476885,154.168702 63.5131759,155.199242 65.5642298,155.027485 C69.0792329,154.369368 70.7185511,150.992905 73.3109612,149.004949 C74.9070726,149.769351 75.9762299,151.173164 77.3198778,152.246218 C78.6050694,153.248699 80.3706193,153.077792 81.915899,153.01147 C80.38248,150.753126 78.1789314,149.042361 76.1092392,147.270377 C73.5786742,145.12682 70.6753443,143.231545 67.3374044,142.510507 C64.6924684,141.932317 61.9729793,142.450988 59.3602365,142.927145 M137.597649,146.115696 C132.920297,147.540766 129.18333,150.73697 124.919408,152.934095 C125.102402,153.695096 125.293867,154.451845 125.481097,155.216247 C129.347685,153.878756 132.579726,151.337268 136.286195,149.684323 C136.967338,152.483446 137.912805,155.634585 140.597559,157.263723 C142.683348,158.627572 145.508736,158.07404 147.449655,156.727196 C149.654898,155.278318 150.691862,152.835462 151.910972,150.659595 C153.128389,151.886549 154.222115,153.246148 155.540347,154.379571 C157.379602,155.684752 159.788172,155.881167 162.000192,155.881167 C159.829684,152.812505 156.647628,150.577968 153.430836,148.610419 C148.847523,145.719466 142.925645,144.724637 137.613746,146.1276 M53.2443514,152.215608 C53.9644653,153.225741 54.6710241,154.322603 55.8062625,154.947559 C57.7039745,155.992553 59.9625907,156.118395 62.0958223,155.967045 C60.1642226,153.246148 56.6051654,151.894202 53.2443514,152.217308 M67.1128983,156.409191 C70.2373456,156.842834 74.2259295,155.92198 75.3450713,152.713872 C72.36973,152.977459 68.7090097,153.717203 67.1128983,156.412592 M131.014114,155.876915 C132.461119,159.130088 136.492063,159.988871 139.820683,159.6207 C137.82978,156.959322 134.373233,155.539354 131.009878,155.879466 M144.581907,160.062846 C147.624177,160.987951 151.659356,159.68277 152.854745,156.645569 C149.813323,156.654072 146.534687,157.699916 144.586143,160.063696 M69.0106103,161.449653 C62.5804166,162.059304 56.1451397,160.86466 49.7073212,161.306806 C52.7453548,163.901011 56.9940269,164.481753 60.9080579,164.548075 C63.9138981,164.551476 66.913808,164.559979 69.9137179,164.735987 C73.5202179,164.973215 77.2605743,163.520936 79.5200376,160.775381 C75.9906322,160.341738 72.510364,161.209024 69.0106103,161.455605 M129.057098,161.625661 C129.205357,162.550766 128.669084,163.98689 129.813641,164.453694 C134.903576,166.786013 140.356109,168.575853 146.007733,168.979736 C147.547929,169.036705 149.194872,169.114931 150.604601,168.390492 C152.042287,167.62609 153.226663,166.479062 154.280571,165.281017 C150.941784,165.138169 147.739395,166.496918 144.413316,166.254588 C140.574685,165.518245 137.237592,163.398496 133.629398,162.043999 C132.163754,161.508322 130.579504,161.627362 129.054556,161.618859 M114.906436,179.976413 C115.527428,183.154761 117.319241,186.313553 120.421661,187.804094 C120.324234,184.824712 119.201704,182.006032 117.895332,179.342104 C116.895645,179.571679 115.904429,179.775747 114.904741,179.971311 M121.26716,197.631635 C118.977197,197.880767 116.857521,196.1615 114.501478,196.473553 C112.118324,196.436991 110.921241,198.703839 110.08845,200.500481 C112.254722,200.508984 114.423536,200.369538 116.591502,200.504733 C118.370607,200.628023 119.833709,201.716382 121.328158,202.554759 C123.873125,199.705469 126.362178,196.318802 126.247807,192.389657 C123.97733,193.529032 122.96917,195.909817 121.266313,197.618881 M133.101597,193.214429 C134.253779,198.054225 137.858585,201.865181 139.604649,206.481354 C141.047418,210.250647 143.575442,213.531879 144.966533,217.321579 C145.712062,219.335043 145.988247,221.458193 146.431329,223.54138 C148.245169,222.63243 148.390886,220.529687 149.088126,218.900549 C149.755714,216.898989 150.844357,214.538611 149.479529,212.574463 C145.777296,206.837621 141.47864,201.485106 137.260466,196.091777 C136.209947,194.739832 134.710416,193.79602 133.092278,193.209327 M53.8162065,219.678556 C59.9752986,216.666863 64.8890171,211.795606 68.9775698,206.53067 C69.8594976,205.446562 68.4946699,204.399017 68.0117699,203.473062 C61.5747987,207.044239 55.6131026,212.511542 53.8162065,219.679406 M171.813227,204.739979 C171.115987,206.062165 170.805915,207.53145 170.144257,208.868941 C168.399887,212.633983 165.276287,215.645676 163.738632,219.516152 C161.284314,225.715547 159.844086,232.234647 158.571603,238.740142 C157.86928,242.303667 155.90464,245.533032 155.474266,249.158628 C157.60665,248.172303 158.780012,246.022794 159.445906,243.941307 C160.921716,239.218 161.53593,234.283823 163.194734,229.610681 C164.33082,226.504607 165.334743,223.355168 166.250559,220.182772 C167.782283,214.502899 173.117904,210.435158 173.872753,204.485746 C173.186526,204.587779 172.415581,204.392215 171.805602,204.74083 M43.9896166,220.402995 C44.2225947,226.679765 44.1124596,232.982043 44.8952658,239.226503 C45.2400733,242.942228 47.1928528,246.583129 50.3384799,248.806612 C49.899634,245.966675 48.2865788,243.437941 47.9519376,240.581849 C47.5122445,232.794982 48.4932938,224.945193 47.4961479,217.190635 C46.2118035,218.040916 43.8405107,218.50857 43.9896166,220.396193 M58.6299563,219.375856 C58.6553721,220.967581 58.290232,222.719159 59.1145506,224.183342 C61.2986138,226.05736 64.6695941,225.501276 66.8951698,227.321727 C68.1769726,228.434744 69.0012912,229.924435 70.0272417,231.246621 C73.3634872,235.617062 77.4105274,239.426318 81.3855563,243.25258 C83.5306486,245.325564 85.7181005,247.540544 88.6248192,248.612748 C92.9226285,250.22488 97.6304792,250.057374 102.157878,249.987651 C106.954684,250.110092 111.402446,248.126388 115.854445,246.684312 C123.311436,243.815466 128.349692,237.30997 132.008718,230.700741 C134.080952,226.712075 139.469945,226.100724 141.831919,222.364592 C138.937908,222.36034 136.107437,223.006553 133.243078,223.293098 C129.808558,223.649365 126.54856,222.306773 123.178427,221.959858 C119.301672,221.599339 115.411363,221.41908 111.521053,221.251575 C107.549413,220.853643 103.575231,221.612094 99.6052858,221.181852 C92.3617869,220.940372 85.0759284,220.882553 77.8705532,221.766845 C74.144599,222.037234 70.5940138,223.645114 66.8138393,223.378976 C63.6292413,223.047367 61.4544973,220.513531 58.61979,219.374156 M69.3655841,240.350573 C69.7569872,241.97971 70.7685355,243.367368 71.8199018,244.667447 C75.0197492,248.554929 78.1645291,252.483224 81.2982954,256.424274 C83.1028162,258.605243 84.8692133,261.088912 87.6827408,262.136458 C91.1935079,263.482452 94.9372531,264.493435 98.7479266,264.390551 C102.24175,264.202639 105.34417,262.493576 108.613487,261.473239 C111.725227,260.436747 115.026737,259.034635 116.699096,256.129227 C111.643049,256.334144 106.813203,258.138439 101.752072,258.343357 C96.0504646,258.805909 89.8396938,258.186905 85.1462454,254.762826 C79.8944969,250.645768 75.8161105,245.367228 71.9003851,240.100591 C71.0481091,240.177116 70.2026107,240.262144 69.360501,240.347172 L69.3655841,240.350573 Z" id="Shape" fill="#FFFFFF"></path>
                <path d="M5.65886838,135.841207 C7.30867795,135.093549 9.22865655,134.772039 11.0283718,135.175403 C12.5172657,135.520541 13.4141591,136.804048 14.1509837,137.986293 C16.5638725,141.908543 17.0627112,146.575076 19.2791135,150.5834 C22.5677226,156.582384 24.3081532,163.380501 23.9549855,170.162585 C20.7425996,165.897729 19.8414716,160.594927 18.7684178,155.567223 C18.2238452,152.695576 15.9176689,150.591839 14.7133418,147.992757 C13.2625595,145.06879 12.1691796,141.7634 9.43445928,139.663038 C8.84754037,139.277395 8.13273581,138.712854 7.38405426,138.933101 C6.16617636,139.960076 6.6861882,141.798842 7.10287522,143.095851 C8.18270438,144.427458 9.49713172,145.934588 9.18715723,147.746351 C8.97881372,149.662751 6.7099021,150.735294 6.73954447,152.712453 C6.82169618,155.250777 6.78273763,157.79332 6.82169618,160.340082 C7.27649481,160.567924 7.74060962,160.794921 8.20472443,161.022763 C9.7317299,158.578107 9.9400734,155.401827 12.2250766,153.412011 C13.2371518,155.333475 14.5431099,157.343544 14.2958078,159.589049 C13.4751376,162.833682 10.429596,165.075811 9.60299732,168.328883 C9.13549481,171.414026 9.51068251,174.851058 11.6534023,177.340438 C14.5558137,180.662706 19.2350734,181.885456 22.2340343,185.109836 C23.9617609,187.022861 24.0777896,189.731644 23.89316,192.131575 C23.6763472,194.161053 23.6043586,196.22091 23.1283869,198.219165 C22.765903,199.831776 20.9661878,200.557494 19.4696716,200.951576 C18.3974648,201.248613 17.9384315,200.106874 17.369298,199.49339 C15.5306242,196.946627 13.1346739,194.818418 11.318867,192.259842 C9.0973832,188.990737 8.51469891,184.982413 8.7188078,181.161426 C8.86363194,179.025622 7.36626884,177.282212 7.01733581,175.239233 C6.71074902,173.525358 5.77066246,171.9946 5.42681098,170.28832 C4.90341143,167.71371 3.27816268,165.455547 3.06134993,162.808366 C2.91229116,158.389927 3.07913535,153.96305 3.09946154,149.54883 C3.65250346,145.683962 3.00121826,141.743147 3.73804287,137.897688 C3.95654947,136.961006 4.77044424,136.260604 5.65886838,135.855552 L5.65886838,135.841207 Z" id="Path" fill="#FFFFFF"></path>
                <path d="M193.320567,159.092667 C196.42097,157.051581 198.916768,154.041787 202.657489,153 C203.366687,159.01534 202.729769,165.068069 202.881133,171.103803 C202.866677,172.633343 203.039299,174.20367 202.550344,175.691573 C201.8505,178.099748 201.658319,180.708463 200.210161,182.856617 C199.505215,183.817678 198.936326,184.880708 198.092772,185.740649 C197.274728,186.60314 196.271307,187.310977 195.68286,188.349364 C193.938777,191.150121 192.047583,193.927086 191.085829,197.088985 C190.188702,199.844705 190.202308,202.858749 188.780511,205.452168 C187.408885,207.877339 184.583998,209.013447 182.052485,210 C181.61115,204.102774 184.060178,198.50041 185.388436,192.840263 C186.079777,190.010614 185.947971,186.996571 187.186091,184.305431 C189.173376,180.375363 193.511047,178.085302 195.332512,174.053266 C196.459236,171.399514 196.027254,168.328538 194.777229,165.788652 C194.170074,164.602409 193.448121,163.354984 192.222756,162.676039 C191.222736,162.614857 190.23207,162.774609 189.245656,162.863832 C190.546703,161.538231 191.839245,160.21263 193.318867,159.08247 M198.242435,156.75417 C197.742425,157.490899 197.076595,158.263316 197.431194,159.199735 C198.639551,164.561621 199.499262,170.110452 198.721186,175.586204 C197.705859,180.828277 192.323099,183.564454 189.852811,188.038358 C189.225248,189.055502 189.382564,190.270636 189.404673,191.404195 C189.720155,191.58774 190.045842,191.778932 190.375781,191.971824 C192.576505,189.780334 194.63522,187.469879 196.529815,185.031962 C198.244135,183.432743 198.956734,181.199615 199.700797,179.0897 C200.106417,177.094501 201.084328,175.208918 201.206779,173.159335 C201.186371,167.672535 199.767975,162.309799 199.400621,156.838295 C199.102996,156.829798 198.524753,156.78731 198.235632,156.761818 L198.242435,156.75417 Z" id="Shape" fill="#FFFFFF"></path>
                <path d="M15.0376363,173.743329 C14.872795,170.807715 15.2459522,167.805974 16.2259427,165 C19.7292729,168.094838 20.6259371,172.739269 21,177 C19.316264,176.905162 17.4722153,177.108759 15.971435,176.25609 C15.0421649,175.768852 15.2513865,174.585557 15.0376363,173.75029 L15.0376363,173.743329 Z" id="Path" fill="#FFFFFF"></path>
                <path d="M187.241139,170.001765 C189.479791,171.870588 190.751733,174.694118 191,177.560882 C189.701701,178.057647 188.416155,178.58 187.096601,179 C186.960564,176 186.935057,172.991176 187.241139,170 L187.241139,170.001765 Z" id="Path" fill="#FFFFFF"></path>
                <path d="M87.6334407,224.105097 C94.3702711,224.078445 101.112241,224.171324 107.855067,224.046947 C114.241565,224.03887 120.722285,223.693199 127,225.006426 C126.852672,225.675155 127.304078,226.666133 126.466364,227.062685 C124.947686,227.926055 123.377615,228.737736 121.724458,229.374967 C119.336374,230.307794 116.694748,230.416826 114.242422,231.167126 C112.297178,231.730861 110.334803,232.305903 108.291055,232.484392 C102.861333,232.985938 97.3973478,233.017436 91.9496375,232.994822 C86.6835176,232.647536 81.5664388,231.222046 76.6789176,229.47673 C74.7293911,228.843538 73.8000254,227.040071 73,225.461937 C77.7419063,224.250473 82.7202227,224.048562 87.6325841,224.105097 L87.6334407,224.105097 Z" id="Path" fill="#FFFFFF"></path>
                <path d="M84,241 C85.3821343,241.135072 86.7281618,241.460398 88.075029,241.7849 C93.6816577,243.199861 99.5393544,243.203979 105.303006,243.09691 C109.558569,242.942071 113.738559,242.038571 118,241.939738 C116.038478,243.85463 113.356499,244.884966 110.693833,245.617978 C105.255983,247.152362 99.5032476,247.097181 93.8831839,246.898691 C89.7770863,246.799858 85.9144995,244.378446 84,241.001647 L84,241 Z" id="Path" fill="#FFFFFF"></path>
                <g id="_x23_000000ff" fill="#000000">
                    <path d="M91.6803175,2.4429 C93.2581429,1.47645 94.7654841,0.1071 96.7305476,0.0289 C103.96154,-0.3094 110.859643,2.5534 118.086389,2.33665 C123.056794,2.46755 127.991532,1.3753 132.965333,1.84195 C135.26923,2.04085 137.476317,2.7336 139.702087,3.30225 C145.201548,4.7311 150.683175,6.3495 155.788603,8.80515 C157.665349,9.6917 159.401127,10.9038 161.440921,11.43505 C163.722738,12.09295 166.158262,11.9629 168.436683,12.6463 C170.867111,13.27105 172.731968,15.0144 174.426135,16.7076 C176.690968,18.8972 178.644992,21.37495 181.07627,23.41325 C184.647183,26.38315 188.105151,29.49585 191.233627,32.9035 C193.426278,35.3498 195.768389,37.80035 196.983603,40.85865 C198.792413,45.3951 198.147865,50.41945 199.786833,55.00095 C201.621119,60.2497 205.157214,64.7003 208.438548,69.17555 C210.369643,71.70345 213.066722,73.9449 213.64673,77.18935 C214.850056,83.1164 212.724492,88.9661 211.220548,94.6441 C210.384929,97.4712 210.071571,100.39605 209.46354,103.26735 C207.984222,109.64575 205.198825,115.73685 204.506722,122.281 C204.13477,126.4205 202.531468,130.3152 201.447881,134.3119 C203.4605,134.95025 205.861206,134.8848 207.486587,136.357 C208.757849,137.42885 208.791817,139.20025 208.689063,140.69625 C208.288238,144.38185 205.79327,147.54555 205.608992,151.27535 C205.158063,156.7315 205.400937,162.214 205.601349,167.6778 C205.699008,173.52325 205.434905,179.7614 202.162063,184.8835 C198.291381,190.61505 194.982873,196.71805 192.657746,203.18145 C191.404317,206.6044 189.356032,210.11065 185.760492,211.67295 C183.942341,212.58075 181.396421,212.8349 180.48777,214.8596 C178.57196,219.6944 177.63019,224.808 176.48631,229.8434 C175.253262,235.5707 172.963802,241.01155 171.319738,246.6275 C169.529611,252.7186 165.254706,257.69365 162.370802,263.2977 C161.535183,265.3428 160.123802,267.1142 158.697984,268.81165 C156.347381,270.9307 154.292302,273.31155 152.285627,275.72895 C150.170254,278.32315 147.568286,280.48725 145.126817,282.7814 C140.400984,287.11385 135.942651,291.8186 130.435548,295.2747 C127.666286,297.1277 124.924198,299.0215 122.12946,300.8422 C117.638008,304.0467 111.972952,305.0684 106.576246,305.93115 C103.868976,306.08245 101.15746,305.6532 98.4552857,305.93965 C96.5675,306.2091 94.7561429,305.46875 92.8827937,305.41605 C90.6468333,305.1143 88.3701111,305.2231 86.1808571,304.6672 C83.8846032,304.26175 81.8286746,303.21115 79.8313413,302.1104 C77.3779841,301.0751 75.1462698,299.60715 73.1378968,297.91735 C71.4615635,295.987 69.2009762,294.51225 67.9475476,292.264 C63.7796429,285.37135 55.660381,281.81155 51.3430159,275.0294 C47.9130714,269.46275 44.4033016,263.8706 39.890619,259.0324 C38.1327619,256.96095 37.1383413,254.3846 35.2828254,252.3854 C34.8047222,251.82865 34.6340317,251.1053 34.404746,250.4423 C33.5504444,247.6611 31.5327302,245.41455 30.3260079,242.7923 C28.4917222,238.8857 27.046373,234.7904 26.2472698,230.5693 C25.0312063,222.71955 26.0893175,214.71765 24.8053175,206.87555 C22.8224206,206.67495 20.8301825,206.47435 18.914373,205.93885 C17.0919762,205.41865 15.8003333,204.0034 14.6055,202.67315 C10.6949048,198.2931 7.51547619,193.17865 6.09560317,187.5372 C5.47313492,185.21415 5.72789683,182.77975 5.22856349,180.4363 C4.46937302,176.698 3.1429127,173.0974 1.8589127,169.50275 C1.08698413,167.3293 0.264103175,165.12865 0.101055556,162.81835 C-0.282785714,158.83015 0.503579365,154.86915 0.954507937,150.91835 C1.40628571,146.6845 0.497634921,142.45405 0.655587302,138.22105 C0.75834127,136.05695 1.5515,133.52565 3.77811905,132.5643 C6.41915079,131.55705 9.31919048,131.9132 12.0884524,131.69645 C10.6201746,125.14295 10.4545794,118.41775 9.42703968,111.80475 C8.82155556,108.6045 7.55029365,105.5241 7.41272222,102.25245 C7.17409524,97.32755 6.70533333,92.4137 6.48793651,87.49305 C6.24846032,83.35695 7.42546032,79.3441 7.84836508,75.26155 C8.43686508,70.58145 7.46876984,65.7747 8.80796825,61.1813 C9.67500794,58.23605 10.9080556,55.40555 12.0672222,52.55805 C12.6947857,50.97535 13.778373,49.5805 15.160881,48.5248 C19.3236905,45.3305 23.6461508,42.2076 27.0158016,38.20325 C29.400373,35.4008 30.0525635,31.74835 31.2856111,28.42655 C32.235873,25.75925 33.9003175,23.39115 35.7218651,21.20325 C39.1781349,17.02635 43.8360317,13.62635 49.2149048,12.1142 C60.6656032,8.80345 72.3574762,6.3138 84.1359683,4.33755 C86.690381,3.93635 89.4927619,3.9253 91.6752222,2.40295 M66.0037143,53.0791 C62.2875873,54.43315 58.310754,54.99755 54.6472778,56.4944 C51.6436349,57.358 48.9864683,58.97385 46.1798413,60.26245 C42.4535238,62.10355 39.1492619,64.6153 36.0776825,67.32 C32.976381,69.5402 30.3183651,72.38005 28.5953254,75.718 C27.144881,78.1473 26.5249603,80.92935 25.0753651,83.3595 C23.7947619,85.6953 23.4066746,88.3337 22.6941905,90.85225 C22.0114286,93.27475 20.4930476,95.5162 20.5490952,98.0968 C20.5830635,101.9949 20.2544206,105.9389 21.0959841,109.7877 C21.8560238,113.50645 21.794881,117.4241 23.3514762,120.96775 C25.0074286,124.882 25.7836032,129.09205 26.0578968,133.2885 C26.0451587,137.65835 26.3568175,142.01545 26.4205079,146.38275 C26.6251667,150.1627 28.6309921,153.6239 28.7244048,157.4234 C28.7677143,159.32995 28.8517857,161.24415 29.1260794,163.13795 C29.5430397,166.94595 31.0410397,170.52955 31.9242143,174.24405 C35.2378175,187.76415 34.0913889,201.74495 34.1754603,215.50305 C34.2094286,225.34095 35.2293254,235.30635 38.647381,244.6402 C40.3958968,250.0156 45.0368095,253.72245 48.8760714,257.7268 C51.5120079,260.33715 52.5921984,263.91565 54.6685079,266.88555 C59.1225952,273.53595 64.813127,279.3083 69.5024444,285.80145 C71.447127,288.40585 73.1412937,291.2406 75.6405079,293.4183 C77.501119,295.17185 80.0750635,295.953 82.5530476,296.54375 C86.4984603,297.50085 90.5984286,297.16255 94.621119,297.21865 C102.175659,297.41245 110.196413,298.4503 117.28219,295.2798 C122.729849,292.89045 127.741865,289.66045 132.485532,286.17375 C141.931254,278.81615 151.465294,271.28345 158.71327,261.8136 C162.397976,256.95415 165.366802,251.57535 167.278365,245.8438 C170.192841,237.6821 172.551087,229.3385 174.167976,220.84955 C174.636738,218.6438 174.812524,216.3777 175.558976,214.2306 C177.039143,210.1064 178.706984,206.0281 179.765095,201.7781 C180.459746,199.01645 180.933603,196.21485 181.355659,193.40815 C182.179389,188.2087 184.13681,183.1733 184.154643,177.87185 C184.227675,174.8688 184.517254,171.8751 184.470548,168.87205 C184.529143,166.7292 184.610667,164.4665 185.723976,162.5489 C187.01477,160.2131 189.039278,158.372 190.848087,156.4119 C196.321222,150.8699 202.77519,145.7886 205.95377,138.59335 C204.724968,138.37235 203.287262,137.83685 202.170556,138.6469 C197.730056,141.41705 195.032976,145.94925 192.511683,150.26895 C191.236175,152.37865 190.135603,154.67365 188.203659,156.31925 C186.911167,157.37835 185.107452,157.3367 183.51519,157.57555 C183.993294,153.3094 188.11704,150.54435 188.81254,146.35895 C189.511437,142.5212 189.297437,138.5789 188.574762,134.76155 C187.917476,131.8282 188.948413,128.8549 188.428698,125.91305 C188.2665,122.91425 188.487294,119.91205 188.340381,116.91325 C188.181579,114.29525 188.676667,111.71805 189.018048,109.13745 C189.256675,107.4927 188.886421,105.8573 188.814238,104.21595 C188.659683,100.6774 188.712333,97.11505 189.322063,93.6122 C189.723738,91.16165 189.168357,88.70685 189.190437,86.25715 C189.121651,83.52865 187.98796,80.96335 186.711603,78.5706 C184.377984,74.3291 181.263944,70.46245 177.552913,67.25285 C173.483516,62.98245 168.582746,59.4235 163.112159,56.96785 C160.907619,55.96995 158.496722,55.5118 156.278595,54.5462 C154.435817,53.7812 152.422349,53.5687 150.511635,53.04085 C146.424405,52.0744 142.410206,50.58095 138.144643,50.64385 C136.267048,50.7093 134.414929,50.4509 132.576397,50.14065 C126.497778,49.41305 120.358865,49.691 114.246278,49.62555 C105.158921,49.6621 96.0732619,49.52695 86.9859048,49.7403 C79.8788968,50.2775 72.7251825,50.90395 65.9680476,53.0927 M5.56230159,135.50615 C4.67063492,135.9116 3.85539683,136.6188 3.63375397,137.57675 C2.89494444,141.4519 3.54798413,145.4197 2.99345238,149.31355 C2.97307143,153.75905 2.80577778,158.219 2.9552381,162.66875 C3.17263492,165.33605 4.8022619,167.6098 5.32707143,170.20315 C5.67269841,171.921 6.61531746,173.46375 6.92188095,175.1901 C7.27175397,177.24795 8.774,179.00235 8.62793651,181.1554 C8.42412698,185.0042 9.00753175,189.0417 11.235,192.3346 C13.0573968,194.9118 15.4581032,197.05635 17.300881,199.6208 C17.873246,200.23875 18.3335159,201.38795 19.4077619,201.0896 C20.9091587,200.69265 22.7137222,199.96165 23.0763333,198.3373 C23.5544365,196.3245 23.6257698,194.24965 23.8431667,192.2054 C24.0282937,189.78715 23.9119524,187.05865 22.1795714,185.13255 C19.1716825,181.8847 14.4806667,180.6522 11.5704365,177.3066 C9.42109524,174.7991 9.04574603,171.33875 9.51450794,168.22945 C10.3433333,164.9527 13.3970794,162.6934 14.2199603,159.426 C14.4679286,157.16415 13.1584524,155.13945 12.1436508,153.204 C9.85249206,155.2083 9.6435873,158.4077 8.11246825,160.87015 C7.64710317,160.64065 7.1817381,160.412 6.72571429,160.1825 C6.68665079,157.6172 6.72571429,155.057 6.64334127,152.49935 C6.61361905,150.50695 8.88864286,149.4283 9.09754762,147.4971 C9.40835714,145.673 8.08953968,144.15405 7.00680159,142.81275 C6.58984127,141.50715 6.06927778,139.65415 7.2887381,138.6197 C8.04028571,138.39785 8.75701587,138.9665 9.34466667,139.35495 C12.0876032,141.46975 13.1839286,144.7992 14.638619,147.7453 C15.8461905,150.36415 18.1594286,152.48235 18.704619,155.3749 C19.7797143,160.4392 20.684119,165.78145 23.9051587,170.0765 C24.2592778,163.24505 22.5141587,156.39745 19.2166905,150.3548 C16.9951667,146.3173 16.4949841,141.61765 14.0755952,137.666 C13.3376349,136.47515 12.4374762,135.18315 10.9445714,134.83465 C9.14170635,134.42665 7.21655556,134.74965 5.56230159,135.49765 M192.956667,159.30615 C191.4765,160.43495 190.183159,161.76435 188.88727,163.0776 C189.872349,162.9892 190.861675,162.82855 191.860341,162.88975 C193.084048,163.5689 193.805024,164.81755 194.411357,166.0033 C195.661389,168.5431 196.091937,171.61585 194.965889,174.2704 C193.146889,178.30365 188.815087,180.5944 186.830492,184.52565 C185.594048,187.2176 185.725675,190.23255 185.03527,193.06305 C183.70796,198.7249 181.264794,204.32895 181.703833,210.22795 C184.233619,209.24195 187.052984,208.10465 188.422754,205.67875 C189.842627,203.08455 189.82904,200.0696 190.724952,197.31305 C191.685405,194.1502 193.57404,191.37325 195.315762,188.5708 C195.903413,187.53125 196.905476,186.8232 197.722413,185.9613 C198.564825,185.1011 199.132944,184.03775 199.836937,183.0764 C201.283135,180.92845 201.475056,178.3181 202.173952,175.9092 C202.660548,174.42085 202.489857,172.84835 202.504294,171.32005 C202.353135,165.28165 202.98919,159.2271 202.280952,153.2108 C198.544444,154.2478 196.05627,157.2568 192.956667,159.2968 M15.6084127,173.7978 C15.8079762,174.61125 15.6126587,175.7647 16.482246,176.2526 C17.889381,177.08645 19.6175159,176.8867 21.1961905,176.97935 C20.8471667,172.81605 20.0064524,168.2796 16.720873,165.25615 C15.8045794,168.00165 15.4547063,170.93415 15.6084127,173.79865 M187.470794,169.68465 C187.16423,172.5653 187.189706,175.4655 187.326429,178.35295 C188.644397,177.9475 189.927548,177.44515 191.225135,176.9666 C190.978865,174.2041 189.705056,171.4841 187.471643,169.6821 L187.470794,169.68465 Z" id="Shape"></path>
                    <path d="M147.023095,104.6945 C151.583333,104.26525 156.280294,103.7867 160.759857,105.00985 C164.748579,105.99075 167.750524,108.9241 170.438262,111.7563 C173.493706,115.0662 176.641714,118.98385 176.487159,123.6393 C173.181198,121.60525 172.504381,117.61365 170.298143,114.74065 C167.895738,111.81665 164.825857,109.13235 160.979802,108.171 C157.597413,107.18075 154.006119,107.25895 150.520976,107.5692 C143.214405,108.18715 135.930762,108.9972 128.640325,109.74945 C123.86269,109.905 119.068921,111.77415 114.307421,110.47365 C116.342119,108.5875 119.276976,108.2849 121.934143,107.8718 C124.820595,107.47825 127.649302,106.7702 130.513675,106.25595 C135.999548,105.44845 141.536373,105.26995 147.030738,104.69195 L147.023095,104.6945 Z" id="Path"></path>
                    <path d="M54.7848492,105.434 C57.8012302,105.0583 60.8507302,104.81265 63.899381,104.9257 C68.5020794,105.1144 72.9306905,106.45145 77.4178968,107.3312 C77.5690556,107.9092 77.7176667,108.4889 77.8586349,109.0754 C73.5455159,109.1859 69.4574365,107.57005 65.1935714,107.27935 C61.6438889,107.0133 58.125627,107.5947 54.652373,108.1999 C47.532627,109.54545 40.305881,112.11755 35.1393095,117.1912 C33.4714683,118.76625 31.6626587,120.27585 29.4835952,121.1505 C30.2555238,118.97875 31.6083095,117.03565 33.301627,115.42065 C38.9106349,109.71715 46.8583571,106.70815 54.7848492,105.43315 L54.7848492,105.434 Z" id="Path"></path>
                    <path d="M43.1303413,116.671 C45.976881,115.2226 49.2565159,115.0101 52.4045238,114.76445 C59.8274365,114.47885 66.8614127,117.10875 73.9565317,118.8062 C75.2269444,119.15385 76.6833333,119.20315 77.7355,120.054 C79.1426349,121.47435 79.3311587,123.58405 79.0891349,125.44215 C79.0118571,126.3015 77.9333651,126.6398 77.1605873,126.53865 C70.6989762,125.65465 64.409754,123.896 58.0670317,122.46375 C53.2044762,121.66305 47.6685,121.02895 43.3163175,123.78125 C38.6405873,126.84125 34.7843413,130.8745 31.1157698,134.9732 C30.2759048,134.4241 29.3545159,133.9294 28.7354444,133.13635 C28.2157302,130.76315 29.2254365,128.34065 30.8126032,126.54205 C32.9288254,124.1612 35.8033889,122.59805 38.2516508,120.5742 C39.8668413,119.2482 41.2145317,117.5907 43.1303413,116.6557 L43.1303413,116.671 Z" id="Path"></path>
                    <path d="M126.276984,122.298 C133.907952,120.76885 141.297746,117.6264 149.227635,117.85165 C153.731825,117.9545 158.758278,118.5597 162.020079,121.87215 C164.942198,124.9772 169.114349,126.7401 171.793595,130.0823 C173.025794,131.70665 173.875,133.7271 173.683929,135.76455 C173.258476,136.8806 172.04581,137.4127 171.085357,138.04255 C168.325437,134.8729 165.404167,131.80865 162.080373,129.17025 C159.862246,127.3249 157.374921,125.545 154.396754,125.1081 C149.325294,124.35925 144.179952,125.341 139.305508,126.67975 C135.060325,127.7601 130.769286,128.65515 126.451071,129.4125 C125.465992,129.6046 124.463929,129.52215 123.482246,129.3666 C122.556611,126.8846 123.032167,122.8726 126.276135,122.3031 L126.276984,122.298 Z" id="Path"></path>
                    <path d="M82.5046429,135.354 C83.4812302,134.97065 84.4501746,134.56435 85.435254,134.2014 C87.8368095,138.2797 90.4005635,142.27215 93.2292698,146.0929 C94.7952063,148.39215 96.6778968,150.875 96.3382143,153.7786 C95.8821905,158.54795 95.2172619,163.302 94.7476508,168.0705 C94.3765476,171.8785 91.0705873,174.403 88.8736905,177.3117 C86.8856984,179.65515 85.892127,182.57235 84.2319286,185.113 C82.5088889,187.8942 80.2890635,190.34475 78.2857857,192.9296 C76.6807857,194.86505 76.9168651,197.7321 78.2220952,199.7534 C79.8126587,201.75685 82.4834127,202.40795 84.8127857,203.29535 C86.7065159,203.99065 87.176127,206.1794 88.7845238,207.2351 C90.7003333,208.8671 93.4466667,208.83395 95.8439762,208.556 C98.5860635,208.335 100.698889,206.47095 102.832095,204.99705 C105.144484,203.42115 107.095111,201.22135 109.909381,200.44785 C108.633024,204.629 105.609,208.24065 101.79946,210.57135 C98.703254,212.466 94.8325714,212.3929 91.3219524,211.9543 C86.9918492,211.157 84.8943095,206.8084 80.9302143,205.3277 C78.8989127,204.44795 76.2731667,203.99065 75.1980714,201.892 C74.1892143,199.50265 73.7798968,196.84045 74.1781746,194.2879 C74.9,191.31375 77.2624921,189.10375 79.0288413,186.67445 C82.2668651,181.97905 85.6407619,177.3644 88.4355,172.4021 C91.8595,167.5673 92.3384524,161.49575 92.2229603,155.81775 C92.1295476,153.16745 92.0573651,150.27915 90.365746,148.0462 C87.3935238,144.0257 85.4658254,139.4017 82.5063413,135.3642 L82.5046429,135.354 Z" id="Path"></path>
                    <path d="M49.5758175,137.819 C52.425754,136.51425 55.2553095,135.0208 58.4033175,134.4768 C64.3290794,133.69905 70.3304206,135.97025 74.735254,139.71705 C77.1028413,141.8446 79.6156429,144.0172 80.9556905,146.91315 C76.1916429,145.50215 73.5625,140.91045 69.0965238,139.0005 C66.8181032,138.03065 64.2365159,138.02385 61.8094841,138.35025 C57.7103651,138.907 53.7352302,140.17435 49.5877063,140.437 C49.5639286,139.5445 49.5596825,138.669 49.5758175,137.802 L49.5758175,137.819 Z" id="Path"></path>
                    <path d="M112.333016,145.367 C114.18004,142.1727 116.010079,138.6741 119.346611,136.67405 C119.725357,143.55055 112.209032,147.6093 111.420119,154.1696 C111.474468,157.9453 112.712611,161.81535 111.509286,165.54175 C111.018444,167.3004 109.602817,168.62215 108.036881,169.5546 C108.095476,167.42705 108.464032,165.3216 108.617738,163.2017 C109.073762,159.78215 108.62623,156.3252 108.918357,152.89715 C109.130659,150.07515 111.032881,147.79715 112.332167,145.36615 L112.333016,145.367 Z" id="Path"></path>
                    <path d="M135.040794,140.1735 C138.654167,138.5211 142.701484,137.87935 146.681714,137.94395 C148.797937,137.99325 150.984643,138.0145 152.987071,138.7863 C155.265492,139.65755 157.163468,141.22835 158.840651,142.9224 C160.503397,144.57905 162.018381,146.4567 162.778421,148.67095 C160.08219,148.18815 158.048341,146.35895 155.825119,144.97175 C152.677111,143.0125 148.907484,142.3903 145.289016,141.69585 C141.559302,141.0983 137.998579,142.5994 134.612794,143.87525 C132.154341,144.84085 130.072087,146.52215 127.553341,147.3526 C128.801675,144.0376 131.816357,141.6661 135.034849,140.1701 L135.040794,140.1735 Z" id="Path"></path>
                    <path d="M58.9697381,142.5705 C61.5886905,142.09195 64.3146429,141.5726 66.9675635,142.1489 C70.3117381,142.8697 73.2219683,144.7635 75.760246,146.9072 C77.8331587,148.67775 80.0436429,150.3888 81.5807063,152.6464 C80.031754,152.71185 78.2620079,152.8827 76.9737619,151.8814 C75.6252222,150.80955 74.5535238,149.4062 72.9553175,148.6412 C70.356746,150.62935 68.7152302,154.00385 65.1901746,154.66175 C63.134246,154.83345 61.1640873,153.80325 59.7051508,152.48575 C57.9090794,150.79765 57.0768571,148.461 56.0280873,146.32495 C52.8452619,147.77675 50.7587619,150.66505 47.849381,152.4985 C47.9903492,149.94085 49.0654444,147.3033 51.1519444,145.62965 C53.4201746,143.98065 56.2013254,143.11365 58.9697381,142.57815 M59.2168571,146.36065 C59.788373,148.49585 60.7488254,150.59195 62.2417302,152.2843 C64.1490476,152.4152 66.0741984,151.81425 67.6800476,150.85715 C69.0243413,150.0556 69.204373,148.39555 69.1602143,147.02025 C67.4201905,148.09635 66.0597619,150.5996 63.644619,149.9434 C61.8867619,149.0849 61.0171746,147.1724 59.2168571,146.3564 L59.2168571,146.36065 Z" id="Shape"></path>
                    <path d="M137.393095,145.758 C142.720167,144.35635 148.654421,145.34575 153.263063,148.2502 C156.4875,150.2171 159.678817,152.4509 161.852786,155.51855 C159.635508,155.51855 157.221214,155.32305 155.377587,154.01745 C154.054524,152.8844 152.958198,151.5261 151.739587,150.2987 C150.518429,152.47555 149.478151,154.91675 147.267667,156.3643 C145.322135,157.70985 142.490032,158.26235 140.399286,156.90065 C137.708151,155.27205 136.760437,152.1228 136.077675,149.32375 C132.362397,150.97615 129.124373,153.5168 125.246897,154.85385 C125.059222,154.0897 124.867302,153.33235 124.683873,152.57245 C128.946889,150.37095 132.691889,147.17495 137.379508,145.74695 M142.483238,153.29495 C141.037889,152.57415 140.286341,151.01525 138.819762,150.3038 C138.772206,152.2877 140.419667,153.97325 142.049294,155.0077 C144.0755,155.5806 146.22569,154.4314 147.684627,153.1275 C148.684143,152.34975 148.121119,151.02375 148.136405,149.99015 C146.302119,151.14615 145.045294,153.75565 142.48069,153.29665 L142.483238,153.29495 Z" id="Shape"></path>
                    <path d="M52.8231825,151.844 C56.1928333,151.52525 59.7595,152.8742 61.6956905,155.59505 C59.5573889,155.74635 57.2934048,155.6197 55.3911825,154.5759 C54.2515476,153.9469 53.5433095,152.8504 52.8231825,151.8474 L52.8231825,151.844 Z" id="Path"></path>
                    <path d="M66.7246905,156.0345 C68.3245952,153.3349 71.9940159,152.59455 74.9764286,152.3404 C73.8529286,155.5534 69.8557143,156.4714 66.7246905,156.0379 L66.7246905,156.0345 Z" id="Path"></path>
                    <path d="M130.777778,155.499 C134.154222,155.16325 137.621532,156.57935 139.605278,159.24155 C136.259405,159.60705 132.217183,158.74855 130.773532,155.50155 L130.777778,155.499 Z" id="Path"></path>
                    <path d="M144.382063,159.681 C146.326746,157.32565 149.620817,156.2776 152.674563,156.26485 C151.485675,159.29935 147.443452,160.59985 144.38631,159.68185 L144.382063,159.681 Z" id="Path"></path>
                    <path d="M197.916032,157.012 C198.20646,157.0324 198.783071,157.07745 199.071802,157.0987 C199.438659,162.571 200.855135,167.93535 200.875516,173.4255 C200.751532,175.474 199.774944,177.361 199.371571,179.3568 C198.628516,181.46735 197.916032,183.70115 196.204881,185.30085 C194.312,187.73865 192.256921,190.0498 190.059175,192.2428 C189.729683,192.04985 189.404437,191.8586 189.089381,191.675 C189.069,190.54195 188.910198,189.32645 189.536913,188.30815 C192.002159,183.83205 197.377635,181.0959 198.393286,175.85225 C199.17031,170.37485 198.311762,164.8235 197.10504,159.46085 C196.756865,158.51735 197.419246,157.74385 197.920278,157.00435 L197.916032,157.012 Z" id="Path"></path>
                    <path d="M68.6269127,161.0665 C72.1349841,160.81745 75.6235238,159.95045 79.1587698,160.3916 C76.8947857,163.13625 73.1455397,164.5889 69.5304683,164.3509 C66.5234286,164.17495 63.5163889,164.16645 60.5034048,164.16305 C56.5800714,164.0976 52.3213016,163.5162 49.2760476,160.92285 C55.7317143,160.47235 62.1814365,161.67085 68.6269127,161.05885 L68.6269127,161.0665 Z" id="Path"></path>
                    <path d="M128.816111,161.2365 C130.342984,161.2416 131.934397,161.13025 133.397579,161.65385 C137.016048,163.0079 140.359373,165.12695 144.207127,165.86305 C147.54281,166.1053 150.751111,164.747 154.097833,164.8898 C153.041421,166.08745 151.85423,167.2341 150.413127,167.99825 C149.000048,168.7233 147.350889,168.6451 145.805333,168.5873 C140.140278,168.1827 134.675635,166.3943 129.572754,164.06275 C128.426325,163.60375 128.961325,162.16725 128.81696,161.24075 L128.816111,161.2365 Z" id="Path"></path>
                    <path d="M114.634365,179.588 C115.636429,179.39165 116.634246,179.18595 117.628667,178.95305 C118.938143,181.6161 120.063341,184.43385 120.161,187.41225 C117.052905,185.92475 115.252587,182.77125 114.632667,179.59225 L114.634365,179.588 Z" id="Path"></path>
                    <path d="M121.011905,197.2425 C122.723056,195.53655 123.728516,193.15995 126.00269,192.00225 C126.119032,195.92925 123.622365,199.31565 121.071349,202.164 C119.573349,201.3259 118.10677,200.2362 116.323437,200.11465 C114.150317,199.9795 111.976349,200.1189 109.804079,200.1104 C110.639698,198.31435 111.838778,196.04825 114.227595,196.0848 C116.588389,195.7788 118.711405,197.4958 121.012754,197.2493 L121.011905,197.2425 Z" id="Path"></path>
                    <path d="M132.875317,192.8395 C134.491357,193.43195 135.997849,194.3695 137.042373,195.71505 C141.270571,201.1066 145.579444,206.45735 149.290476,212.1923 C150.658548,214.15665 149.567317,216.51625 148.897294,218.5163 C148.199246,220.1449 148.053183,222.24695 146.235032,223.1556 C145.792595,221.0731 145.514056,218.9498 144.766754,216.93785 C143.370659,213.1494 140.838325,209.8701 139.392127,206.1012 C137.651254,201.4857 134.033635,197.6777 132.878714,192.8412 L132.875317,192.8395 Z" id="Path"></path>
                    <path d="M53.4108333,219.3 C55.212,212.13705 61.1878651,206.6724 67.6418333,203.09985 C68.1241825,204.02465 69.4939524,205.07185 68.6099286,206.15645 C64.5099603,211.41795 59.5845635,216.28845 53.4108333,219.29745 L53.4108333,219.3 Z" id="Path"></path>
                    <path d="M171.684048,204.3655 C172.299722,204.0221 173.066556,204.20995 173.750167,204.1122 C172.993524,210.0605 167.645222,214.1269 166.109857,219.80405 C165.191865,222.97455 164.183857,226.12465 163.04677,229.22885 C161.384024,233.90045 160.768349,238.83385 159.289032,243.55475 C158.623254,245.6364 157.445405,247.78435 155.307952,248.77035 C155.739349,245.14595 157.708659,241.91765 158.412651,238.3553 C159.688159,231.8511 161.130111,225.335 163.59196,219.13765 C165.131571,215.2676 168.264294,212.2569 170.01281,208.49395 C170.683683,207.15095 170.997889,205.68045 171.694238,204.36295 L171.684048,204.3655 Z" id="Path"></path>
                    <path d="M43.5651349,220.0225 C43.4148254,218.13635 45.7909048,217.66715 47.08,216.8112 C48.0795159,224.5632 47.0978333,232.4104 47.536873,240.1947 C47.8731587,243.049 49.4908968,245.57775 49.9290873,248.41675 C46.7759841,246.19485 44.8185635,242.55515 44.4729365,238.8398 C43.6882698,232.6008 43.8003651,226.3023 43.5651349,220.0293 L43.5651349,220.0225 Z" id="Path"></path>
                    <path d="M58.2402698,219.0025 C61.0834127,220.1398 63.261627,222.6711 66.4436032,223.00685 C70.2327619,223.2729 73.7900873,221.66555 77.5265952,221.39525 C84.7490952,220.51125 92.0522698,220.56905 99.3129841,220.81045 C103.294063,221.24055 107.276841,220.48235 111.257071,220.88015 C115.156627,221.04675 119.056183,221.22695 122.942151,221.58735 C126.320294,221.935 129.58804,223.27715 133.030722,222.921 C135.901889,222.63455 138.739087,221.98855 141.639976,221.9928 C139.272389,225.7277 133.872286,226.33715 131.793429,230.3262 C128.125706,236.9324 123.073778,243.4366 115.600762,246.3045 C111.138183,247.7444 106.680698,249.7283 101.871643,249.60675 C97.3334841,249.6756 92.6161429,249.84305 88.3064206,248.2323 C85.3927937,247.16045 83.2001429,244.94705 81.0499524,242.87305 C77.0654762,239.04805 73.0088175,235.2409 69.6646429,230.8719 C68.636254,229.5493 67.8082778,228.0601 66.5259762,226.9483 C64.2942619,225.12675 60.9169683,225.68435 58.7260159,223.81095 C57.8954921,222.35745 58.2631984,220.60645 58.2377222,219.01695 M87.3722937,224.36345 C82.5046429,224.30225 77.5690556,224.51985 72.8636032,225.79145 C73.6567619,227.45235 74.5781508,229.3504 76.5109444,230.0168 C81.3565159,231.85365 86.4296746,233.35475 91.649746,233.7194 C97.0506984,233.7432 102.467786,233.71005 107.851754,233.1822 C109.879659,232.99435 111.82519,232.38915 113.75204,231.79585 C116.183317,231.00535 118.80227,230.8923 121.169857,229.9097 C122.808825,229.23905 124.365421,228.3848 125.871063,227.47615 C126.702437,227.05965 126.254905,226.01585 126.400119,225.31205 C120.176286,223.9291 113.750341,224.2946 107.419508,224.30225 C100.71927,224.42975 94.0360159,224.32775 87.361254,224.36175 M83.3020476,240.49475 C85.2390873,243.98315 89.1411905,246.47535 93.2963571,246.5816 C98.979246,246.78645 104.798008,246.84425 110.297468,245.25985 C112.990302,244.5025 115.702667,243.43915 117.686413,241.46375 C113.37754,241.5666 109.149341,242.4999 104.845563,242.658 C99.0183095,242.7685 93.0925476,242.76425 87.4223968,241.30395 C86.0636667,240.97245 84.7015397,240.63245 83.303746,240.49645 L83.3020476,240.49475 Z" id="Shape"></path>
                    <path d="M69.0116032,239.972 C69.8557143,239.88615 70.7032222,239.8054 71.5524286,239.72295 C75.4774603,244.98785 79.5655397,250.26465 84.8297698,254.38035 C89.534373,257.8033 95.7582063,258.4221 101.475063,257.9597 C106.548222,257.75485 111.389548,255.952 116.457611,255.7463 C114.781278,258.65075 111.471921,260.0524 108.352786,261.08855 C105.076548,262.10685 101.965905,263.81705 98.4637778,264.0049 C94.645746,264.10775 90.8914048,263.0971 87.3722937,261.75155 C84.5520794,260.7052 82.7814841,258.22235 80.9726746,256.04125 C77.8331587,252.1015 74.6809048,248.1745 71.471754,244.2883 C70.4255317,242.9878 69.409881,241.6023 69.0175476,239.9788 L69.0116032,239.972 Z" id="Path"></path>
                </g>
                <g id="_x23_80ab5eff" transform="translate(59.000000, 146.000000)" fill="#FFFFFF">
                    <path d="M0.621509434,0.147272727 C2.42150943,0.931090909 3.29179245,2.77363636 5.04849057,3.59672727 C7.46320755,4.22754545 8.82339623,1.81718182 10.5631132,0.783 C10.6072642,2.106 10.4272642,3.70390909 9.08320755,4.47627273 C7.4759434,5.39754545 5.55283019,5.976 3.64584906,5.85 C2.15320755,4.22181818 1.19292453,2.20090909 0.621509434,0.147272727 L0.621509434,0.147272727 Z" id="Path"></path>
                    <path d="M83.8867925,6.84 C86.4543396,7.28018182 87.7033019,4.76427273 89.5372642,3.65727273 C89.520283,4.65381818 90.0849057,5.92936364 89.085566,6.67718182 C87.6268868,7.93309091 85.4770755,9.03845455 83.4512264,8.487 C81.8218868,7.49127273 80.1764151,5.86881818 80.2222642,3.95918182 C81.6826415,4.64645455 82.4383019,6.15190909 83.8816981,6.83918182 L83.8867925,6.84 Z" id="Path"></path>
                </g>
            </g>
        </g>
    </g>
</svg>