<?xml version="1.0" encoding="UTF-8"?>
<svg width="418px" height="117px" viewBox="0 0 418 117" version="1.1" xmlns="http://www.w3.org/2000/svg" xmlns:xlink="http://www.w3.org/1999/xlink">
    <!-- Generator: Sketch 61 (89581) - https://sketch.com -->
    <title>Group 2</title>
    <desc>Created with Sketch.</desc>
    <g id="Page-1" stroke="none" stroke-width="1" fill="none" fill-rule="evenodd">
        <g id="Desktop-Music" transform="translate(-432.000000, -618.000000)">
            <g id="Group-2" transform="translate(432.000000, 618.000000)">
                <g id="Group" transform="translate(0.000000, 0.654409)">
                    <circle id="Oval" stroke="#000000" stroke-width="4" cx="13.5" cy="13.5" r="11.5"></circle>
                    <circle id="Oval-Copy" stroke="#000000" stroke-width="4" cx="62.5" cy="13.5" r="11.5"></circle>
                    <circle id="Oval-Copy-2" stroke="#000000" stroke-width="4" cx="111.5" cy="13.5" r="11.5"></circle>
                    <circle id="Oval-Copy-3" stroke="#000000" stroke-width="4" cx="160.5" cy="13.5" r="11.5"></circle>
                    <circle id="Oval-Copy-4" stroke="#000000" stroke-width="4" cx="209.5" cy="13.5" r="11.5"></circle>
                    <circle id="Oval-Copy-5" stroke="#000000" stroke-width="4" cx="257.5" cy="13.5" r="11.5"></circle>
                    <circle id="Oval-Copy-6" stroke="#000000" stroke-width="4" cx="306.5" cy="13.5" r="11.5"></circle>
                    <circle id="Oval-Copy-7" stroke="#000000" stroke-width="4" cx="355.5" cy="13.5" r="11.5"></circle>
                    <circle id="Oval-Copy-8" stroke="#000000" stroke-width="4" cx="404.5" cy="13.5" r="11.5"></circle>
                    <path d="M13,13 C17.4792068,47.6666667 33.6776601,65 61.5953599,65 C89.5130597,65 105.981273,47.6666667 111,13" id="Path-2" stroke="#F2FF00" stroke-width="10" stroke-linecap="round" stroke-linejoin="round"></path>
                    <path d="M62,13 C78.5655656,78.3333333 110.962472,111 159.19072,111 C207.418967,111 240.355394,78.3333333 258,13" id="Path-2-Copy" stroke="#FF0000" stroke-width="10" stroke-linecap="round" stroke-linejoin="round"></path>
                </g>
            </g>
        </g>
    </g>
</svg>