<?xml version="1.0" encoding="UTF-8"?>
<svg width="78px" height="78px" viewBox="0 0 78 78" version="1.1" xmlns="http://www.w3.org/2000/svg" xmlns:xlink="http://www.w3.org/1999/xlink">
    <title>ReelA</title>
    <g id="Page-1" stroke="none" stroke-width="1" fill="none" fill-rule="evenodd">
        <path d="M39,0.5 C49.6314814,0.5 59.2564814,4.80925928 66.2236111,11.7763889 C73.1907407,18.7435186 77.5,28.3685186 77.5,39 C77.5,49.6314814 73.1907407,59.2564814 66.2236111,66.2236111 C59.2564814,73.1907407 49.6314814,77.5 39,77.5 C28.3685186,77.5 18.7435186,73.1907407 11.7763889,66.2236111 C4.80925928,59.2564814 0.5,49.6314814 0.5,39 C0.5,28.3685186 4.80925928,18.7435186 11.7763889,11.7763889 C18.7435186,4.80925928 28.3685186,0.5 39,0.5 Z M44.6585366,8.06097561 L33.3414634,8.06097561 L33.1942866,8.06807773 C32.8552936,8.10106836 32.5489266,8.2479237 32.3106413,8.486209 C32.0600676,8.73678276 31.8818638,9.0934096 31.8414649,9.53662108 L31.8414649,9.53662108 L31.8411526,14.6465355 L31.3176361,14.8138019 C27.4962173,16.0797817 24.0677517,18.2081736 21.2630664,20.9685534 L21.2630664,20.9685534 L16.672388,18.3187909 L16.5413936,18.2513621 C16.2313533,18.1104546 15.8926041,18.0844516 15.5671004,18.17167 C15.2248061,18.2633875 14.8921597,18.4831378 14.6355662,18.8467787 L14.6355662,18.8467787 L8.96486049,28.6687291 L8.89742267,28.7997391 C8.7564969,29.1098109 8.7304939,29.4485601 8.81771237,29.7740639 C8.90943087,30.116362 9.12918498,30.449012 9.49283311,30.7056066 L9.49283311,30.7056066 L14.2124508,33.4301336 L14.0653506,34.0823619 C13.6949208,35.8298426 13.5,37.6421598 13.5,39.5 C13.5,41.5745959 13.7430575,43.5924268 14.2021419,45.5265995 L14.2021419,45.5265995 L9.51389207,48.2334561 L9.38998638,48.3131939 C9.11290951,48.5112586 8.92101566,48.7916225 8.83379718,49.1171262 C8.74207969,49.4594206 8.76606581,49.8573759 8.95269138,50.2614129 L8.95269138,50.2614129 L14.6233971,60.0833633 L14.7031361,60.2072711 C14.9012033,60.4843523 15.1815673,60.6762462 15.507071,60.7634647 C15.8493727,60.8551841 16.2473378,60.831195 16.6513837,60.6445584 L16.6513837,60.6445584 L21.2310194,57.9998515 L21.6018156,58.3588916 C24.4717523,61.0834924 27.9630947,63.1597771 31.8411528,64.3534646 L31.8411528,64.3534646 L31.8414634,69.3902747 L31.8485655,69.5374414 C31.8815562,69.8764138 32.0284115,70.1827807 32.2666968,70.421066 C32.5172736,70.6716428 32.8739062,70.8498479 33.3171252,70.8902439 L33.3171252,70.8902439 L44.6585366,70.8902439 L44.8057134,70.8831418 C45.1447064,70.8501512 45.4510734,70.7032958 45.6893587,70.4650105 C45.9399311,70.2144381 46.1181344,69.8578136 46.1585345,69.4146054 L46.1585345,69.4146054 L46.1589508,64.6393083 L46.6700504,64.4986471 C50.7419681,63.3328776 54.405118,61.1992728 57.394454,58.3624329 L57.394454,58.3624329 L61.3276321,60.6324402 L61.4586198,60.6998652 C61.7686467,60.840765 62.1073959,60.866768 62.4328996,60.7795495 C62.7751939,60.687832 63.1078403,60.4680817 63.3644338,60.1044408 L63.3644338,60.1044408 L69.0351395,50.2824904 L69.1025773,50.1514804 C69.2435031,49.8414086 69.2695061,49.5026594 69.1822876,49.1771556 C69.0905722,48.834869 68.8708298,48.5022299 68.5072036,48.2456388 L68.5072036,48.2456388 L64.6727062,46.0312156 L64.8136765,45.4595612 C65.2625268,43.5458166 65.5,41.5506391 65.5,39.5 C65.5,37.2287213 65.2086759,35.0254812 64.661485,32.9255682 L64.661485,32.9255682 L68.4860723,30.717784 L68.6099898,30.6380394 C68.8870905,30.4399609 69.0789843,30.159597 69.1662028,29.8340933 C69.2579203,29.4917989 69.2339342,29.0938436 69.0473086,28.6898066 L69.0473086,28.6898066 L63.3766029,18.8678563 L63.2968639,18.7439484 C63.0987967,18.4668672 62.8184327,18.2749733 62.492929,18.1877548 C62.1506589,18.0960439 61.7527357,18.1200201 61.3487283,18.3066093 L61.3487283,18.3066093 L57.3617697,20.6066035 L56.9853372,20.2575376 C53.9463407,17.4944505 50.2501202,15.4415571 46.1589512,14.3606918 L46.1589512,14.3606918 L46.1585366,9.56093242 L46.1507923,9.40758039 C46.1149453,9.05463007 45.9567125,8.73783122 45.7191968,8.50031544 C45.4477501,8.22886883 45.0727501,8.06097561 44.6585366,8.06097561 L44.6585366,8.06097561 Z" id="ReelA" stroke="#979797" fill="#D6D3D3"></path>
    </g>
</svg>