<?xml version="1.0" encoding="UTF-8"?>
<svg width="24px" height="24px" viewBox="0 0 24 24" version="1.1" xmlns="http://www.w3.org/2000/svg" xmlns:xlink="http://www.w3.org/1999/xlink">
    <!-- Generator: Sketch 61 (89581) - https://sketch.com -->
    <title>dizzy</title>
    <desc>Created with Sketch.</desc>
    <g id="Symbols" stroke="none" stroke-width="1" fill="none" fill-rule="evenodd">
        <g id="Header" transform="translate(-321.000000, -14.000000)" fill="#000000" fill-rule="nonzero">
            <g id="dizzy" transform="translate(321.000000, 14.000000)">
                <path d="M12,0 C5.37096774,0 0,5.37096774 0,12 C0,18.6290323 5.37096774,24 12,24 C18.6290323,24 24,18.6290323 24,12 C24,5.37096774 18.6290323,0 12,0 Z M12,21.6774194 C6.66290323,21.6774194 2.32258065,17.3370968 2.32258065,12 C2.32258065,6.66290323 6.66290323,2.32258065 12,2.32258065 C17.3370968,2.32258065 21.6774194,6.66290323 21.6774194,12 C21.6774194,17.3370968 17.3370968,21.6774194 12,21.6774194 Z M10.3645161,11.133871 C10.7419355,10.7564516 10.7419355,10.1419355 10.3645161,9.76451613 L9.4983871,8.90322581 L10.3645161,8.03709677 C10.7419355,7.65967742 10.7419355,7.04516129 10.3645161,6.66774194 C9.98709677,6.29032258 9.37258065,6.29032258 8.99516129,6.66774194 L8.12903226,7.53387097 L7.26774194,6.67258065 C6.89032258,6.29516129 6.27580645,6.29516129 5.8983871,6.67258065 C5.52096774,7.05 5.52096774,7.66451613 5.8983871,8.04193548 L6.76451613,8.90806452 L5.8983871,9.77419355 C5.52096774,10.1516129 5.52096774,10.766129 5.8983871,11.1435484 C6.27580645,11.5209677 6.89032258,11.5209677 7.26774194,11.1435484 L8.12903226,10.2822581 L8.99032258,11.1435484 C9.37258065,11.516129 9.98225806,11.516129 10.3645161,11.133871 L10.3645161,11.133871 Z M18.1064516,6.67258065 C17.7290323,6.29516129 17.1145161,6.29516129 16.7370968,6.67258065 L15.8709677,7.53387097 L15.0096774,6.67258065 C14.6322581,6.29516129 14.0177419,6.29516129 13.6403226,6.67258065 C13.2629032,7.05 13.2629032,7.66451613 13.6403226,8.04193548 L14.5064516,8.90806452 L13.6403226,9.77419355 C13.2629032,10.1516129 13.2629032,10.766129 13.6403226,11.1435484 C14.0177419,11.5209677 14.6322581,11.5209677 15.0096774,11.1435484 L15.8709677,10.2822581 L16.7322581,11.1435484 C17.1096774,11.5209677 17.7241935,11.5209677 18.1016129,11.1435484 C18.4790323,10.766129 18.4790323,10.1516129 18.1016129,9.77419355 L17.2403226,8.90322581 L18.1064516,8.03709677 C18.4790323,7.65967742 18.4790323,7.05 18.1064516,6.67258065 L18.1064516,6.67258065 Z M12,12.7741935 C10.2919355,12.7741935 8.90322581,14.1629032 8.90322581,15.8709677 C8.90322581,17.5790323 10.2919355,18.9677419 12,18.9677419 C13.7080645,18.9677419 15.0967742,17.5790323 15.0967742,15.8709677 C15.0967742,14.1629032 13.7080645,12.7741935 12,12.7741935 Z" id="Shape"></path>
            </g>
        </g>
    </g>
</svg>