<?xml version="1.0" encoding="UTF-8"?>
<svg width="668px" height="411px" viewBox="0 0 668 411" version="1.1" xmlns="http://www.w3.org/2000/svg" xmlns:xlink="http://www.w3.org/1999/xlink">
    <title>Group 5</title>
    <defs>
        <filter id="filter-1">
            <feColorMatrix in="SourceGraphic" type="matrix" values="0 0 0 0 0.000000 0 0 0 0 0.501961 0 0 0 0 0.666667 0 0 0 1.000000 0"></feColorMatrix>
        </filter>
    </defs>
    <g id="Page-1" stroke="none" stroke-width="1" fill="none" fill-rule="evenodd">
        <g id="Group-5">
            <path d="M197,147.5 C207.631481,147.5 217.256481,151.809259 224.223611,158.776389 C231.190741,165.743519 235.5,175.368519 235.5,186 C235.5,196.631481 231.190741,206.256481 224.223611,213.223611 C217.256481,220.190741 207.631481,224.5 197,224.5 C186.368519,224.5 176.743519,220.190741 169.776389,213.223611 C162.809259,206.256481 158.5,196.631481 158.5,186 C158.5,175.368519 162.809259,165.743519 169.776389,158.776389 C176.743519,151.809259 186.368519,147.5 197,147.5 Z M201.658537,155.060976 L192.341463,155.060976 L192.142372,155.068783 C191.551212,155.115406 191.017652,155.368837 190.611329,155.77516 C190.178061,156.208428 189.887449,156.818832 189.841465,157.544446 L189.841465,157.544446 L189.841158,161.646534 L189.317641,161.8138 C185.496217,163.079781 182.067747,165.208176 179.26306,167.96856 L179.26306,167.96856 L175.538403,165.818785 L175.36236,165.726135 C174.827936,165.471266 174.240046,165.423711 173.685033,165.572426 C173.094342,165.730701 172.537363,166.113234 172.132024,166.71894 L172.132024,166.71894 L167.46486,174.802704 L167.372202,174.978762 C167.117309,175.513228 167.069753,176.101118 167.218469,176.656132 C167.376745,177.246827 167.759282,177.80381 168.364997,178.20915 L168.364997,178.20915 L172.21245,180.430138 L172.06535,181.082366 C171.694921,182.829845 171.5,184.642161 171.5,186.5 C171.5,188.574596 171.743058,190.592428 172.202142,192.526601 L172.202142,192.526601 L168.379916,194.733457 L168.211644,194.839597 C167.723673,195.175009 167.388544,195.660358 167.239828,196.215372 C167.081553,196.806062 167.134347,197.479687 167.456234,198.133574 L167.456234,198.133574 L172.123397,206.217338 L172.229539,206.385612 C172.564953,206.873589 173.050303,207.208718 173.605317,207.357434 C174.196016,207.515711 174.869652,207.462913 175.523549,207.141013 L175.523549,207.141013 L179.231026,204.999858 L179.601822,205.358898 C182.471759,208.083497 185.963101,210.15978 189.841158,211.353466 L189.841158,211.353466 L189.841463,215.390282 L189.849271,215.589363 C189.895894,216.180495 190.149325,216.714055 190.555647,217.120378 C190.988919,217.55365 191.599331,217.844264 192.324953,217.890244 L192.324953,217.890244 L201.658537,217.890244 L201.857628,217.882436 C202.448788,217.835814 202.982348,217.582383 203.388671,217.17606 C203.821937,216.742794 204.112549,216.132392 204.158535,215.406782 L204.158535,215.406782 L204.158943,211.63931 L204.670043,211.498649 C208.741969,210.332879 212.405125,208.199269 215.394465,205.362422 L215.394465,205.362422 L218.461624,207.13245 L218.637659,207.225096 C219.172064,207.479953 219.759954,207.527509 220.314967,207.378793 C220.905658,207.220518 221.462637,206.837986 221.867976,206.232279 L221.867976,206.232279 L226.53514,198.148516 L226.627798,197.972457 C226.882691,197.437991 226.930247,196.850101 226.781531,196.295088 C226.623259,195.704407 226.240737,195.147437 225.635048,194.742099 L225.635048,194.742099 L222.672703,193.031227 L222.813674,192.459572 C223.262526,190.545824 223.5,188.550643 223.5,186.5 C223.5,184.228724 223.208677,182.025486 222.661487,179.925575 L222.661487,179.925575 L225.620039,178.217788 L225.788323,178.111641 C226.276327,177.776211 226.611456,177.290861 226.760172,176.735847 C226.918447,176.145157 226.865653,175.471533 226.543766,174.817645 L226.543766,174.817645 L221.876603,166.733882 L221.770461,166.565608 C221.435047,166.077631 220.949697,165.742501 220.394683,165.593786 C219.804024,165.435519 219.13044,165.488299 218.476585,165.810141 L218.476585,165.810141 L215.361795,167.606628 L214.985362,167.25756 C211.946359,164.49446 208.250126,162.441557 204.158943,161.36069 L204.158943,161.36069 L204.158537,157.560922 L204.150249,157.355898 C204.100846,156.747346 203.833473,156.200379 203.426304,155.793209 C202.973893,155.340798 202.348893,155.060976 201.658537,155.060976 L201.658537,155.060976 Z" id="Combined-Shape" stroke="#979797" fill="#D6D3D3"></path>
            <path d="M472,147.5 C482.631481,147.5 492.256481,151.809259 499.223611,158.776389 C506.190741,165.743519 510.5,175.368519 510.5,186 C510.5,196.631481 506.190741,206.256481 499.223611,213.223611 C492.256481,220.190741 482.631481,224.5 472,224.5 C461.368519,224.5 451.743519,220.190741 444.776389,213.223611 C437.809259,206.256481 433.5,196.631481 433.5,186 C433.5,175.368519 437.809259,165.743519 444.776389,158.776389 C451.743519,151.809259 461.368519,147.5 472,147.5 Z M476.658537,155.060976 L467.341463,155.060976 L467.142372,155.068783 C466.551212,155.115406 466.017652,155.368837 465.611329,155.77516 C465.178061,156.208428 464.887449,156.818832 464.841465,157.544446 L464.841465,157.544446 L464.841158,161.646534 L464.317641,161.8138 C460.496217,163.079781 457.067747,165.208176 454.26306,167.96856 L454.26306,167.96856 L450.538403,165.818785 L450.36236,165.726135 C449.827936,165.471266 449.240046,165.423711 448.685033,165.572426 C448.094342,165.730701 447.537363,166.113234 447.132024,166.71894 L447.132024,166.71894 L442.46486,174.802704 L442.372202,174.978762 C442.117309,175.513228 442.069753,176.101118 442.218469,176.656132 C442.376745,177.246827 442.759282,177.80381 443.364997,178.20915 L443.364997,178.20915 L447.21245,180.430138 L447.06535,181.082366 C446.694921,182.829845 446.5,184.642161 446.5,186.5 C446.5,188.574596 446.743058,190.592428 447.202142,192.526601 L447.202142,192.526601 L443.379916,194.733457 L443.211644,194.839597 C442.723673,195.175009 442.388544,195.660358 442.239828,196.215372 C442.081553,196.806062 442.134347,197.479687 442.456234,198.133574 L442.456234,198.133574 L447.123397,206.217338 L447.229539,206.385612 C447.564953,206.873589 448.050303,207.208718 448.605317,207.357434 C449.196016,207.515711 449.869652,207.462913 450.523549,207.141013 L450.523549,207.141013 L454.231026,204.999858 L454.601822,205.358898 C457.471759,208.083497 460.963101,210.15978 464.841158,211.353466 L464.841158,211.353466 L464.841463,215.390282 L464.849271,215.589363 C464.895894,216.180495 465.149325,216.714055 465.555647,217.120378 C465.988919,217.55365 466.599331,217.844264 467.324953,217.890244 L467.324953,217.890244 L476.658537,217.890244 L476.857628,217.882436 C477.448788,217.835814 477.982348,217.582383 478.388671,217.17606 C478.821937,216.742794 479.112549,216.132392 479.158535,215.406782 L479.158535,215.406782 L479.158943,211.63931 L479.670043,211.498649 C483.741969,210.332879 487.405125,208.199269 490.394465,205.362422 L490.394465,205.362422 L493.461624,207.13245 L493.637659,207.225096 C494.172064,207.479953 494.759954,207.527509 495.314967,207.378793 C495.905658,207.220518 496.462637,206.837986 496.867976,206.232279 L496.867976,206.232279 L501.53514,198.148516 L501.627798,197.972457 C501.882691,197.437991 501.930247,196.850101 501.781531,196.295088 C501.623259,195.704407 501.240737,195.147437 500.635048,194.742099 L500.635048,194.742099 L497.672703,193.031227 L497.813674,192.459572 C498.262526,190.545824 498.5,188.550643 498.5,186.5 C498.5,184.228724 498.208677,182.025486 497.661487,179.925575 L497.661487,179.925575 L500.620039,178.217788 L500.788323,178.111641 C501.276327,177.776211 501.611456,177.290861 501.760172,176.735847 C501.918447,176.145157 501.865653,175.471533 501.543766,174.817645 L501.543766,174.817645 L496.876603,166.733882 L496.770461,166.565608 C496.435047,166.077631 495.949697,165.742501 495.394683,165.593786 C494.804024,165.435519 494.13044,165.488299 493.476585,165.810141 L493.476585,165.810141 L490.361795,167.606628 L489.985362,167.25756 C486.946359,164.49446 483.250126,162.441557 479.158943,161.36069 L479.158943,161.36069 L479.158537,157.560922 L479.150249,157.355898 C479.100846,156.747346 478.833473,156.200379 478.426304,155.793209 C477.973893,155.340798 477.348893,155.060976 476.658537,155.060976 L476.658537,155.060976 Z" id="Combined-Shape" stroke="#979797" fill="#D6D3D3"></path>
            <g id="Group-3" transform="translate(54.000000, 43.000000)">
                <path d="M143,0 C221.976719,0 286,64.0232808 286,143 C286,221.976719 221.976719,286 143,286 C64.0232808,286 0,221.976719 0,143 C0,64.0232808 64.0232808,0 143,0 Z M143.5,5 C67.0085622,5 5,67.0085622 5,143.5 C5,219.991438 67.0085622,282 143.5,282 C219.991438,282 282,219.991438 282,143.5 C282,67.0085622 219.991438,5 143.5,5 Z" id="Combined-Shape" fill="#3E3D3E"></path>
                <path d="M143,3 C220.319865,3 283,65.680135 283,143 C283,220.319865 220.319865,283 143,283 C65.680135,283 3,220.319865 3,143 C3,65.680135 65.680135,3 143,3 Z M143.5,94 C116.161905,94 94,116.161905 94,143.5 C94,170.838095 116.161905,193 143.5,193 C170.838095,193 193,170.838095 193,143.5 C193,116.161905 170.838095,94 143.5,94 Z" id="Combined-Shape" fill="#6C6C6C"></path>
                <path d="M143,73 C181.659932,73 213,104.340068 213,143 C213,181.659932 181.659932,213 143,213 C104.340068,213 73,181.659932 73,143 C73,104.340068 104.340068,73 143,73 Z M143,78 C107.101491,78 78,107.101491 78,143 C78,178.898509 107.101491,208 143,208 C178.898509,208 208,178.898509 208,143 C208,107.101491 178.898509,78 143,78 Z" id="Combined-Shape" fill="#3E3D3E"></path>
                <path d="M143,76 C180.003078,76 210,105.996922 210,143 C210,180.003078 180.003078,210 143,210 C105.996922,210 76,180.003078 76,143 C76,105.996922 105.996922,76 143,76 Z M143,99.7076923 C119.090319,99.7076923 99.7076923,119.090319 99.7076923,143 C99.7076923,150.431145 101.579997,157.42499 104.878606,163.535535 C112.12623,177.477525 126.701069,187 143.5,187 C167.524387,187 187,167.524387 187,143.5 C187,126.701069 177.477525,112.12623 163.535932,104.878842 C157.42499,101.579997 150.431145,99.7076923 143,99.7076923 Z" id="Combined-Shape" fill="#B5B5B5"></path>
            </g>
            <g id="Group-3-Copy" transform="translate(366.000000, 80.000000)">
                <path d="M106,0 C164.542183,0 212,47.4578165 212,106 C212,164.542183 164.542183,212 106,212 C47.4578165,212 0,164.542183 0,106 C0,47.4578165 47.4578165,0 106,0 Z M106.5,4 C49.8908131,4 4,49.8908131 4,106.5 C4,163.109187 49.8908131,209 106.5,209 C163.109187,209 209,163.109187 209,106.5 C209,49.8908131 163.109187,4 106.5,4 Z" id="Combined-Shape" fill="#3E3D3E"></path>
                <path d="M106,3 C162.885329,3 209,49.1146708 209,106 C209,162.885329 162.885329,209 106,209 C49.1146708,209 3,162.885329 3,106 C3,49.1146708 49.1146708,3 106,3 Z M107,71 C87.117749,71 71,87.117749 71,107 C71,126.882251 87.117749,143 107,143 C126.882251,143 143,126.882251 143,107 C143,87.117749 126.882251,71 107,71 Z" id="Combined-Shape" fill="#6C6C6C"></path>
                <path d="M106,36 C144.659932,36 176,67.3400675 176,106 C176,144.659932 144.659932,176 106,176 C67.3400675,176 36,144.659932 36,106 C36,67.3400675 67.3400675,36 106,36 Z M106,41 C70.1014913,41 41,70.1014913 41,106 C41,141.898509 70.1014913,171 106,171 C141.898509,171 171,141.898509 171,106 C171,70.1014913 141.898509,41 106,41 Z" id="Combined-Shape" fill="#3E3D3E"></path>
                <path d="M106,39 C143.003078,39 173,68.9969218 173,106 C173,143.003078 143.003078,173 106,173 C68.9969218,173 39,143.003078 39,106 C39,68.9969218 68.9969218,39 106,39 Z M106,62.7076923 C82.0903187,62.7076923 62.7076923,82.0903187 62.7076923,106 C62.7076923,113.431145 64.5799971,120.42499 67.8786063,126.535535 C75.1262304,140.477525 89.7010686,150 106.5,150 C130.524387,150 150,130.524387 150,106.5 C150,89.7010686 140.477525,75.1262304 126.535932,67.8788421 C120.42499,64.5799971 113.431145,62.7076923 106,62.7076923 Z" id="Combined-Shape" fill="#B5B5B5"></path>
            </g>
            <path d="M646,5 C650.418278,5 654,8.581722 654,13 L654.000932,256.378292 C659.176141,257.710745 663,262.408817 663,268 L663,364 C663,369.591183 659.176141,374.289255 654.000932,375.621708 L654,387 C654,391.418278 650.418278,395 646,395 L568.019,395 L568.533452,397.071231 C569.598682,401.359175 566.986155,405.69878 562.698211,406.76401 C562.067265,406.920752 561.419566,407 560.769442,407 L108.230558,407 C103.81228,407 100.230558,403.418278 100.230558,399 C100.230558,398.349876 100.309806,397.702177 100.466548,397.071231 L100.98,395 L22,395 C17.581722,395 14,391.418278 14,387 L14.0000718,375.621966 C8.82435371,374.289863 5,369.591544 5,364 L5,268 C5,262.408456 8.82435371,257.710137 14.0000718,256.378034 L14,13 C14,8.581722 17.581722,5 22,5 L646,5 Z M487,363 C479.268014,363 473,369.268014 473,377 C473,384.731986 479.268014,391 487,391 C494.731986,391 501,384.731986 501,377 C501,369.268014 494.731986,363 487,363 Z M173,363 C165.268014,363 159,369.268014 159,377 C159,384.731986 165.268014,391 173,391 C180.731986,391 187,384.731986 187,377 C187,369.268014 180.731986,363 173,363 Z M236,357 C228.268014,357 222,363.268014 222,371 C222,378.731986 228.268014,385 236,385 C243.731986,385 250,378.731986 250,371 C250,363.268014 243.731986,357 236,357 Z M424,357 C416.268014,357 410,363.268014 410,371 C410,378.731986 416.268014,385 424,385 C431.731986,385 438,378.731986 438,371 C438,363.268014 431.731986,357 424,357 Z M197,141 C172.147186,141 152,161.147186 152,186 C152,210.852814 172.147186,231 197,231 C221.852814,231 242,210.852814 242,186 C242,161.147186 221.852814,141 197,141 Z M472,141 C447.147186,141 427,161.147186 427,186 C427,210.852814 447.147186,231 472,231 C496.852814,231 517,210.852814 517,186 C517,161.147186 496.852814,141 472,141 Z M409,144 L260,144 C255.665086,144 252.135457,147.447838 252.003807,151.750821 L252,152 L252,219 C252,223.334914 255.447838,226.864543 259.750821,226.996193 L260,227 L409,227 C413.334914,227 416.864543,223.552162 416.996193,219.249179 L417,219 L417,152 C417,147.581722 413.418278,144 409,144 Z" id="Combined-Shape" fill="#0E9DCC"></path>
            <g id="Group-2" transform="translate(252.000000, 144.000000)">
                <rect id="Rectangle" fill-opacity="0.1" fill="#D7FEFF" x="0" y="0" width="165" height="83" rx="8"></rect>
                <polygon id="Rectangle" fill="#FFFFFF" opacity="0.197172619" points="0 72 165 72 165 81 0 81"></polygon>
                <polygon id="Rectangle-Copy-5" fill="#FFFFFF" opacity="0.197172619" points="0 13 165 13 165 26 0 26"></polygon>
            </g>
            <path d="M618,33 C623.522847,33 628,37.4771525 628,43 L628,280 C628,285.522847 623.522847,290 618,290 L50,290 C44.4771525,290 40,285.522847 40,280 L40,43 C40,37.4771525 44.4771525,33 50,33 L618,33 Z M522,129 L146,129 C143.790861,129 142,130.790861 142,133 L142,133 L142,239 C142,241.209139 143.790861,243 146,243 L146,243 L522,243 C524.209139,243 526,241.209139 526,239 L526,239 L526,133 C526,130.790861 524.209139,129 522,129 L522,129 Z" id="Combined-Shape" fill="#FFA436"></path>
            <g filter="url(#filter-1)" id="Group-4">
                <g transform="translate(16.000000, 7.000000)">
                    <g id="Group" transform="translate(3.000000, 3.000000)" fill="#7E9970">
                        <path d="M9.5,0 C14.7467051,0 19,4.25329488 19,9.5 C19,14.7467051 14.7467051,19 9.5,19 C4.25329488,19 0,14.7467051 0,9.5 C0,4.25329488 4.25329488,0 9.5,0 Z M9.5,2 C5.35786438,2 2,5.35786438 2,9.5 C2,13.6421356 5.35786438,17 9.5,17 C13.6421356,17 17,13.6421356 17,9.5 C17,5.35786438 13.6421356,2 9.5,2 Z" id="Combined-Shape"></path>
                        <rect id="Rectangle-Copy-3" transform="translate(9.500000, 9.500000) rotate(90.000000) translate(-9.500000, -9.500000) " x="8.5" y="3.5" width="2" height="12" rx="1"></rect>
                    </g>
                    <g id="Group-Copy-4" transform="translate(623.500000, 373.456742) rotate(190.000000) translate(-623.500000, -373.456742) translate(614.000000, 363.956742)" fill="#7E9970">
                        <path d="M9.5,0 C14.7467051,0 19,4.25329488 19,9.5 C19,14.7467051 14.7467051,19 9.5,19 C4.25329488,19 0,14.7467051 0,9.5 C0,4.25329488 4.25329488,0 9.5,0 Z M9.5,2 C5.35786438,2 2,5.35786438 2,9.5 C2,13.6421356 5.35786438,17 9.5,17 C13.6421356,17 17,13.6421356 17,9.5 C17,5.35786438 13.6421356,2 9.5,2 Z" id="Combined-Shape"></path>
                        <rect id="Rectangle-Copy-3" transform="translate(9.500000, 9.500000) rotate(90.000000) translate(-9.500000, -9.500000) " x="8.5" y="3.5" width="2" height="12" rx="1"></rect>
                    </g>
                    <g id="Group-Copy-5" transform="translate(12.500000, 373.456742) rotate(203.000000) translate(-12.500000, -373.456742) translate(3.000000, 363.956742)" fill="#7E9970">
                        <path d="M9.5,0 C14.7467051,0 19,4.25329488 19,9.5 C19,14.7467051 14.7467051,19 9.5,19 C4.25329488,19 0,14.7467051 0,9.5 C0,4.25329488 4.25329488,0 9.5,0 Z M9.5,2 C5.35786438,2 2,5.35786438 2,9.5 C2,13.6421356 5.35786438,17 9.5,17 C13.6421356,17 17,13.6421356 17,9.5 C17,5.35786438 13.6421356,2 9.5,2 Z" id="Combined-Shape"></path>
                        <rect id="Rectangle-Copy-3" transform="translate(9.500000, 9.500000) rotate(90.000000) translate(-9.500000, -9.500000) " x="8.5" y="3.5" width="2" height="12" rx="1"></rect>
                    </g>
                    <g id="Group-Copy" transform="translate(623.500000, 12.500000) rotate(23.000000) translate(-623.500000, -12.500000) translate(614.000000, 3.000000)" fill="#0080AA">
                        <path d="M9.5,0 C14.7467051,0 19,4.25329488 19,9.5 C19,14.7467051 14.7467051,19 9.5,19 C4.25329488,19 0,14.7467051 0,9.5 C0,4.25329488 4.25329488,0 9.5,0 Z M9.5,2 C5.35786438,2 2,5.35786438 2,9.5 C2,13.6421356 5.35786438,17 9.5,17 C13.6421356,17 17,13.6421356 17,9.5 C17,5.35786438 13.6421356,2 9.5,2 Z" id="Combined-Shape"></path>
                        <rect id="Rectangle-Copy-3" transform="translate(9.500000, 9.500000) rotate(90.000000) translate(-9.500000, -9.500000) " x="8.5" y="3.5" width="2" height="12" rx="1"></rect>
                    </g>
                    <g id="Group-Copy-7" transform="translate(305.000000, 331.000000)" fill="#7E9970">
                        <g id="Group-Copy-6" transform="translate(13.500000, 13.500000) rotate(120.000000) translate(-13.500000, -13.500000) translate(4.000000, 4.000000)">
                            <path d="M9.5,0 C14.7467051,0 19,4.25329488 19,9.5 C19,14.7467051 14.7467051,19 9.5,19 C4.25329488,19 0,14.7467051 0,9.5 C0,4.25329488 4.25329488,0 9.5,0 Z M9.5,2 C5.35786438,2 2,5.35786438 2,9.5 C2,13.6421356 5.35786438,17 9.5,17 C13.6421356,17 17,13.6421356 17,9.5 C17,5.35786438 13.6421356,2 9.5,2 Z" id="Combined-Shape"></path>
                            <rect id="Rectangle-Copy-3" transform="translate(9.500000, 9.500000) rotate(90.000000) translate(-9.500000, -9.500000) " x="8.5" y="3.5" width="2" height="12" rx="1"></rect>
                        </g>
                    </g>
                </g>
            </g>
            <rect id="Rectangle" fill-opacity="0.8" fill="#FFFFFF" x="40" y="53" width="588" height="55"></rect>
            <rect id="Rectangle-Copy-6" fill="#DD8B27" x="530" y="172" width="98" height="28"></rect>
            <rect id="Rectangle-Copy-8" fill="#DD8B27" x="40" y="172" width="98" height="28"></rect>
            <rect id="Rectangle-Copy-7" fill="#FDFDFD" x="582" y="66" width="35" height="30" rx="4"></rect>
            <rect id="Rectangle" fill="#FFFFFF" opacity="0.170247396" x="126" y="333" width="416" height="4" rx="2"></rect>
            <rect id="Rectangle-Copy-4" fill="#FFFFFF" opacity="0.170247396" x="48" y="10" width="573" height="4" rx="2"></rect>
            <path d="M647,0 C653.627417,-1.21743675e-15 659,5.372583 659,12 L659.00058,251.608749 C664.328737,254.20545 668,259.67399 668,266 L668,365 C668,371.32601 664.328737,376.79455 659.00058,379.391251 L659,388 C659,394.627417 653.627417,400 647,400 L573.422014,400.000832 C573.009612,404.929731 569.552575,409.288132 564.494974,410.610005 C563.504278,410.868937 562.484515,411 561.460541,411 L107.369317,411 C101.078812,411 95.9188023,406.159775 95.4104292,400.000467 L21,400 C14.372583,400 9,394.627417 9,388 L9.00041542,380.391737 C3.6717203,377.795231 7.7476099e-16,372.326404 0,366 L0,267 C-7.7476099e-16,260.673596 3.6717203,255.204769 9.00041542,252.608263 L9,12 C9,5.372583 14.372583,1.21743675e-15 21,0 L647,0 Z M544.870282,327 L124.129718,327 C120.54186,327 117.404594,329.386451 116.432917,332.818275 L116.365708,333.071231 L100.667,396.261 L100.466548,397.071231 C100.309806,397.702177 100.230558,398.349876 100.230558,399 L100.235837,399.293372 L100.239782,399.387578 L100.239,399.388 L100.253345,399.608379 L100.255,399.633 L100.257,399.657 L100.270593,399.805364 C100.277134,399.870796 100.284463,399.935997 100.292571,400.000955 L100.323885,400.225815 C100.90151,403.982273 104.092144,406.877202 107.981379,406.996193 L108.230558,407 L560.769442,407 C561.419566,407 562.067265,406.920752 562.698211,406.76401 C565.934395,405.960063 568.216266,403.291039 568.683046,400.186752 L568.708817,400.000386 C568.737535,399.772889 568.756518,399.543232 568.765433,399.311967 L568.766343,399.287382 L568.768,399.192 L568.77,398.971 L568.769816,398.851286 L568.767633,398.763921 L568.765,398.725 L568.762,398.648 L568.756365,398.518675 L568.751,398.456 L568.736,398.276 L568.726,398.171 L568.704574,397.977452 C568.683349,397.814337 568.656983,397.650956 568.625367,397.487495 L568.605867,397.3899 L568.533452,397.071231 L568.332,396.261 L552.634292,333.071231 C551.748175,329.504283 548.545648,327 544.870282,327 Z M646,5 L22,5 C17.6650857,5 14.1354571,8.44783777 14.0038068,12.7508207 L14,13 L14,387 C14,391.334914 17.4478378,394.864543 21.7508207,394.996193 L22,395 L95.999,395 L111.727607,332.089572 C113.063108,326.747568 117.862905,323 123.369317,323 L544.733268,323 C550.192005,323 554.962925,326.684237 556.343273,331.965567 L572.818,395 L646,395 C650.334914,395 653.864543,391.552162 653.996193,387.249179 L654,387 L654,13 C654,8.581722 650.418278,5 646,5 Z M173,363 C180.731986,363 187,369.268014 187,377 C187,384.731986 180.731986,391 173,391 C165.268014,391 159,384.731986 159,377 C159,369.268014 165.268014,363 173,363 Z M487,363 C494.731986,363 501,369.268014 501,377 C501,384.731986 494.731986,391 487,391 C479.268014,391 473,384.731986 473,377 C473,369.268014 479.268014,363 487,363 Z M173,367 C167.477153,367 163,371.477153 163,377 C163,382.522847 167.477153,387 173,387 C178.522847,387 183,382.522847 183,377 C183,371.477153 178.522847,367 173,367 Z M487,367 C481.477153,367 477,371.477153 477,377 C477,382.522847 481.477153,387 487,387 C492.522847,387 497,382.522847 497,377 C497,371.477153 492.522847,367 487,367 Z M236,357 C243.731986,357 250,363.268014 250,371 C250,378.731986 243.731986,385 236,385 C228.268014,385 222,378.731986 222,371 C222,363.268014 228.268014,357 236,357 Z M424,357 C431.731986,357 438,363.268014 438,371 C438,378.731986 431.731986,385 424,385 C416.268014,385 410,378.731986 410,371 C410,363.268014 416.268014,357 424,357 Z M236,361 C230.477153,361 226,365.477153 226,371 C226,376.522847 230.477153,381 236,381 C241.522847,381 246,376.522847 246,371 C246,365.477153 241.522847,361 236,361 Z M424,361 C418.477153,361 414,365.477153 414,371 C414,376.522847 418.477153,381 424,381 C429.522847,381 434,376.522847 434,371 C434,365.477153 429.522847,361 424,361 Z M9,259.054 L8.999,259.056 L8.97473686,259.078249 L8.928,259.12 L8.843,259.198 L8.72964408,259.305072 C8.58254131,259.44505 8.43941875,259.588268 8.2999699,259.73501 C8.26063654,259.776397 8.2212849,259.818401 8.18223361,259.860686 C8.1505143,259.895036 8.11935658,259.929168 8.0883942,259.96348 C8.05422393,260.001344 8.02001875,260.039738 7.98605776,260.078351 C7.70640094,260.396291 7.44299727,260.729575 7.19754298,261.07646 C7.1818122,261.09869 7.16591608,261.121318 7.15009632,261.144004 C7.10858416,261.203531 7.06756781,261.263498 7.02708482,261.323853 C7.00142995,261.362101 6.97602872,261.400445 6.95084274,261.438942 C6.90860567,261.5035 6.86689439,261.568617 6.82579887,261.63416 C6.81217352,261.655889 6.79845005,261.677934 6.78479624,261.700026 C6.74270595,261.768134 6.70146061,261.836384 6.66088029,261.905075 C6.64335164,261.934745 6.6259291,261.964528 6.60863161,261.994393 C6.45697699,262.256216 6.31478681,262.524604 6.18271371,262.798784 L6.10828534,262.956219 C6.03205413,263.120566 5.95950888,263.286744 5.89066747,263.45483 L5.84228137,263.574825 L5.79080108,263.7068 L5.73635521,263.851676 L5.72807115,263.874232 C5.65521533,264.073223 5.58747859,264.274682 5.52502039,264.478449 L5.50567665,264.542193 L5.44560921,264.748911 C5.43257777,264.795325 5.41992144,264.841469 5.40753457,264.887723 C5.39245587,264.944011 5.37753984,265.001399 5.36303957,265.058952 C5.34514976,265.129967 5.32796198,265.200936 5.31140821,265.272149 C5.25561087,265.512173 5.20699696,265.755074 5.16583279,266.000501 C5.14535552,266.122566 5.12666875,266.245639 5.10986614,266.369312 C5.08597737,266.545154 5.06590863,266.722086 5.04972945,266.900142 L5.04104884,267.000302 C5.02292283,267.220107 5.0107209,267.441543 5.00460029,267.664481 L5,268 L5,364 C5,364.225367 5.00621264,364.449283 5.018476,364.671587 L5.02658361,364.805148 C5.03088072,364.870059 5.03574117,364.9354 5.04112276,365.000594 L5.05371237,365.142837 C5.06050646,365.214747 5.067928,365.286408 5.07597734,365.35788 L5.09105124,365.485579 C5.09693938,365.533271 5.10311912,365.580963 5.10957802,365.628566 C5.13664721,365.828012 5.16853036,366.025441 5.20516646,366.221197 C5.23933072,366.403811 5.27781197,366.585734 5.32036249,366.766086 C5.33111367,366.811658 5.34216864,366.857307 5.35348378,366.902853 C5.37101439,366.973411 5.38909274,367.043435 5.40778428,367.113209 C5.41881944,367.154405 5.43012922,367.195732 5.44165376,367.236969 C5.52586887,367.538291 5.62149265,367.83467 5.72807115,368.125768 L5.74865467,368.181557 C5.7608947,368.214478 5.77327508,368.247331 5.78579509,368.280115 L5.85540341,368.458091 C5.86688887,368.486777 5.87849154,368.515432 5.89020144,368.544032 C5.92205157,368.621819 5.95463514,368.699059 5.98799907,368.775882 C6.0001458,368.803852 6.01241673,368.831812 6.02479096,368.859717 L6.1324793,369.095612 L6.15411112,369.141415 C6.22244593,369.285309 6.29351092,369.427534 6.36728225,369.568117 C6.41336324,369.655934 6.46059497,369.743281 6.50886992,369.829967 C6.54232745,369.890043 6.57618911,369.949635 6.61054341,370.008906 L6.67232743,370.114261 C6.70784711,370.174133 6.74411207,370.234059 6.7808835,370.293638 C6.79908697,370.323132 6.81735261,370.352443 6.83574082,370.381669 C6.87603346,370.445707 6.91680477,370.50917 6.95815388,370.57222 C6.97967692,370.605038 7.00131034,370.637676 7.0230986,370.670201 C7.04549256,370.70363 7.06806945,370.736969 7.09080903,370.770188 C7.12686548,370.82286 7.16329658,370.875181 7.20013138,370.927197 C7.31576871,371.09048 7.43515472,371.250455 7.55836386,371.407283 C7.59283582,371.451156 7.62716041,371.494231 7.66177369,371.537062 L7.78172085,371.683131 C7.80576234,371.711947 7.8301959,371.740953 7.85476392,371.769842 C7.88492754,371.805307 7.91493234,371.840179 7.9451333,371.874876 C7.99255108,371.929351 8.04032857,371.983257 8.08858047,372.036726 C8.1211939,372.072868 8.15421283,372.109014 8.1874489,372.144957 C8.22369615,372.184156 8.26016809,372.223077 8.29689512,372.261754 C8.51519555,372.491628 8.74224585,372.712626 8.97772385,372.924439 L9.00009149,372.944508 L9,259.054 Z M659.000915,259.056393 L659.000915,372.943607 L659.025737,372.921325 L659.108646,372.84599 L659.145,372.811 L659.194974,372.766037 C659.259008,372.70615 659.322386,372.645569 659.385094,372.584307 C659.571324,372.402388 659.752006,372.214072 659.926452,372.020037 C659.95708,371.985968 659.987292,371.951978 660.017312,371.917816 C660.298669,371.597651 660.56333,371.262256 660.809823,370.913118 C660.823713,370.893444 660.837458,370.873851 660.851145,370.854216 C660.904868,370.777148 660.957755,370.699353 661.009744,370.620912 C661.028199,370.593067 661.046528,370.56516 661.064743,370.537173 C661.092698,370.494217 661.120089,370.451539 661.147216,370.408677 C661.175934,370.363304 661.204469,370.31754 661.232703,370.271572 C661.397684,370.002985 661.552593,369.727 661.696645,369.444553 C661.728684,369.381739 661.760394,369.318179 661.791553,369.254301 C661.804158,369.228461 661.81657,369.202782 661.828893,369.177052 L661.894406,369.037975 C661.930068,368.960992 661.965079,368.883245 661.999282,368.805062 C662.00375,368.794847 662.007956,368.785198 662.012148,368.775543 C662.045373,368.699043 662.078009,368.621675 662.109853,368.543899 C662.125679,368.505243 662.141283,368.466554 662.15669,368.427767 C662.275116,368.129618 662.381922,367.825648 662.476568,367.516365 C662.488912,367.47603 662.501093,367.435453 662.513065,367.394787 C662.534832,367.32085 662.555913,367.246591 662.576293,367.172043 C662.583634,367.145191 662.590819,367.11854 662.597916,367.091852 C662.614495,367.029504 662.630616,366.966829 662.646241,366.903959 C662.683568,366.753757 662.718003,366.602732 662.74956,366.450652 C662.794224,366.235379 662.833069,366.018333 662.865997,365.79935 C662.874449,365.743162 662.882595,365.686228 662.890341,365.629166 C662.914588,365.450444 662.934837,365.271184 662.951093,365.090774 L662.959696,364.990622 C662.977495,364.772777 662.989475,364.553345 662.995484,364.332442 L663,364 L663,268 C663,267.772955 662.993695,267.547384 662.981249,267.32345 C662.978849,267.280289 662.976248,267.237594 662.973424,267.194961 C662.968367,267.11857 662.962551,267.04186 662.956018,266.965356 L662.946302,266.857317 C662.938332,266.772951 662.929505,266.688984 662.919816,266.605279 C662.916259,266.574543 662.912551,266.543558 662.908725,266.512611 C662.882188,266.297952 662.849982,266.085049 662.812261,265.874057 C662.804813,265.832392 662.797127,265.790684 662.789227,265.749053 C662.755178,265.569634 662.717124,265.391583 662.675169,265.215043 C662.664882,265.171747 662.654241,265.128065 662.643361,265.084478 C662.624037,265.007065 662.604071,264.930358 662.583369,264.853954 L662.569123,264.801843 L662.554526,264.749393 C662.535024,264.679937 662.514997,264.611014 662.494371,264.542351 C662.463336,264.439039 662.430954,264.336334 662.397238,264.234235 C662.357409,264.113615 662.315632,263.993606 662.27202,263.874481 L662.251544,263.818977 C662.198529,263.676366 662.142881,263.535037 662.084658,263.395047 C662.058246,263.331539 662.031217,263.268107 662.00366,263.204958 L661.971016,263.130839 C661.942288,263.066204 661.912966,263.001787 661.883095,262.937678 C661.807504,262.775444 661.72834,262.615079 661.645748,262.456786 C661.562792,262.297777 661.476119,262.140413 661.386068,261.985252 C661.36146,261.942849 661.33647,261.900393 661.311227,261.858105 C661.274511,261.796599 661.237367,261.735622 661.199698,261.675006 L661.145791,261.589071 L661.061118,261.45726 C661.032061,261.412671 661.002812,261.36843 660.973279,261.324395 C660.932546,261.263662 660.891391,261.203492 660.849705,261.143719 C660.741389,260.988384 660.629053,260.83516 660.51323,260.684759 C660.417752,260.560773 660.319758,260.438529 660.219455,260.318279 L660.139115,260.222966 C660.092873,260.168676 660.045984,260.114607 659.998622,260.060965 C659.978261,260.037903 659.957536,260.014611 659.936721,259.9914 C659.86586,259.912389 659.794406,259.834786 659.721952,259.758139 L659.722231,259.758435 C659.49821,259.521447 659.264938,259.293859 659.02275,259.075988 L659.000915,259.056393 Z M522,125 C526.334914,125 529.864543,128.447838 529.996193,132.750821 L530,133 L530,239 C530,243.334914 526.552162,246.864543 522.249179,246.996193 L522,247 L146,247 C141.665086,247 138.135457,243.552162 138.003807,239.249179 L138,239 L138,133 C138,128.665086 141.447838,125.135457 145.750821,125.003807 L146,125 L522,125 Z M522,129 L146,129 C143.857805,129 142.108921,130.683968 142.004895,132.80036 L142,133 L142,239 C142,241.142195 143.683968,242.891079 145.80036,242.995105 L146,243 L522,243 C524.142195,243 525.891079,241.316032 525.995105,239.19964 L526,239 L526,133 C526,130.790861 524.209139,129 522,129 Z M472,141 C496.852814,141 517,161.147186 517,186 C517,210.852814 496.852814,231 472,231 C447.147186,231 427,210.852814 427,186 C427,161.147186 447.147186,141 472,141 Z M197,141 C221.852814,141 242,161.147186 242,186 C242,210.852814 221.852814,231 197,231 C172.147186,231 152,210.852814 152,186 C152,161.147186 172.147186,141 197,141 Z M409,144 C413.418278,144 417,147.581722 417,152 L417,219 C417,223.418278 413.418278,227 409,227 L260,227 C255.581722,227 252,223.418278 252,219 L252,152 C252,147.581722 255.581722,144 260,144 L409,144 Z M409,148 L260,148 C257.857805,148 256.108921,149.683968 256.004895,151.80036 L256,152 L256,219 C256,221.142195 257.683968,222.891079 259.80036,222.995105 L260,223 L409,223 C411.142195,223 412.891079,221.316032 412.995105,219.19964 L413,219 L413,152 C413,149.857805 411.316032,148.108921 409.19964,148.004895 L409,148 Z M472,151 C452.670034,151 437,166.670034 437,186 C437,205.329966 452.670034,221 472,221 C491.329966,221 507,205.329966 507,186 C507,166.670034 491.329966,151 472,151 Z M197,151 C177.670034,151 162,166.670034 162,186 C162,205.329966 177.670034,221 197,221 C216.329966,221 232,205.329966 232,186 C232,166.670034 216.329966,151 197,151 Z" id="Combined-Shape" fill="#0080AA"></path>
        </g>
    </g>
</svg>